<?xml version="1.0" encoding="UTF-8"?>
<svg id="Layer_1" data-name="Layer 1" xmlns="http://www.w3.org/2000/svg" viewBox="0 0 1340.63 385.85">
  <defs>
    <style>
      .cls-1 {
        fill: #fff;
      }
    </style>
  </defs>
  <g>
    <g>
      <g>
        <rect class="cls-1" x="1290.05" y="66.7" width="48.51" height="200.35"/>
        <path class="cls-1" d="M1332.34,40.39c-9.94,4.06-25.87,3.53-35.53.59-10.11-3.08-9.07-37.28-.51-39.19,11.04-2.47,24.87-2.27,35.84-.05,8.84,1.79,9.79,34.73.2,38.65Z"/>
      </g>
      <path class="cls-1" d="M521.04,266.98l-194.26-.24c-13.65-.02-23.95-10.21-27.72-21.01-4.1-11.76-1.18-25.44,9.48-33.68l132.13-102.19-143.19-.37-.08-42.68,184.72-.14c15.46-.01,27.64,9.34,31.67,21.35,5.52,16.46-1.87,28.94-14.56,38.66l-126.88,97.29,148.74.82-.05,42.18Z"/>
      <path class="cls-1" d="M1109.7,266.74l-48.33.13.1-86.24c.01-11,8.35-20.82,19.68-20.85l103.45-.31c13.2-.04,20.83-9.3,21.92-22.09,1.04-12.3-5.66-27.26-19.83-27.35l-105.56-.73c-12.65-.09-20.19-10.81-19.63-22.29.5-10.22,9.43-20.22,21.7-20.16l107.53.55c39.13.2,66.04,32.04,64.05,70.22-1.25,23.85-12.24,45.07-35.42,56.47l44.23,72.02-54.62.73-39.24-64.74-60.04-.03.02,64.67Z"/>
      <path class="cls-1" d="M722.09,66.95l47.98-.24-.06,116.14c-.02,34.8-20.11,64.14-52.37,77.84-37.08,15.74-79.72,15.8-117.17.66-31.21-12.61-53.31-40.28-53.48-74.24l-.61-120.38h48.34s-.13,109.69-.13,109.69c-.02,16.4,7.71,30.43,22.53,38.27,24.97,13.23,55.83,13.41,81.23.88,14.78-7.29,23.31-20.9,23.76-37.06l-.02-111.56Z"/>
      <path class="cls-1" d="M911.8,119.57l-72.54,146.78-51.69.23,91.71-181.22c6.14-12.13,19.94-18.19,32.04-18.2,11.91-.02,26.21,5.63,32.35,17.75l92.09,181.87h-51.78s-72.19-147.19-72.19-147.19Z"/>
    </g>
    <g>
      <path class="cls-1" d="M130.61,148.85l41.56-20.99c10.24-5.17,9.44-19.42,3.08-27.35,18.92,9.45,28.36,30.59,27.67,50.93s-12.07,39.23-31.71,49l-99.07,49.24,130.55,65.18-.35,71L25.84,297.96C8.12,284.74-1.64,266.17.24,244.54c1.6-18.36,12.83-36.39,31.34-45.73l99.03-49.96Z"/>
      <path class="cls-1" d="M175.25,100.51c6.36,7.93,7.16,22.18-3.08,27.35l-41.56,20.99L0,84.4.36,13.11l174.89,87.39Z"/>
    </g>
  </g>
  <path class="cls-1" d="M887.85,310.11c.59-1.55,6.7-1.03,7.91-.44l-19.1,53.31c-1.46,2.77-10.93,2.24-11.86-.57l-14.27-43-14.6,43.83c-2.52,1.79-8.46,1.35-12.06.23l-18.48-53.83,8.48-.31,15.55,46.78,15.03-46.56c4.42-.6,8.15-.59,12.56,0l14.31,44.03,16.52-43.47Z"/>
  <path class="cls-1" d="M424.62,364.36c-3.26,2.77-9.23-1.57-11.86-4.25l-38.01-38.68-.5,43.1c-1.84-.09-4.71-.24-7.88.36l.42-54.75c2-3.23,9.55.6,12.33,3.32l36.11,35.4c3.38-15.42,1.22-26.59,1.37-39.82l8.46.06-.44,55.25Z"/>
  <path class="cls-1" d="M639.57,363.39l-12.32-20.85-29.66.45-1.04,20.56c-1.3,1.37-6.56,1.23-7.53-.06l.1-54.31,43.45.29c8.45.06,13.79,6.06,14.78,13.11,1.13,7.97-2.36,14.84-10.6,19.21l11.82,22.03c-1.69,1.1-7.55,2.03-9.01-.43ZM632.01,335.15c5.77-.1,7.34-7.25,6.72-11.03-.52-3.17-2.76-7.49-7.55-7.52l-33.91-.21.02,19.35,34.72-.58Z"/>
  <path class="cls-1" d="M1119.23,363.66l-11.08-20.56-30.84-.1-.41,20.8c-3.41.71-5.85.47-8.12-.12l.16-54.59,45.19.63c8.1.11,12.81,7.87,13.16,14.46.39,7.3-3.37,13.12-10.53,17.72l10.64,21.38c-2.16,1.71-7.29,2-8.17.38ZM1111.85,335.14c5.72-.09,7.38-7.19,6.61-10.96-.61-2.99-2.76-7.55-7.42-7.58l-34.04-.24.07,19.36,34.78-.58Z"/>
  <path class="cls-1" d="M1005.06,355.67c-9.66,9.8-22.26,9.5-33.93,9.23-17.33-.4-29.64-11.79-29.74-27.93s12.18-27.73,29.51-28.25c11.44-.34,23.44-.45,32.77,7.6,10.76,9.28,11.89,28.69,1.39,39.35ZM992.95,355c9.97-4.76,12.04-15.07,10.04-23.89-4.29-18.89-36.14-20.45-47.91-8.28-6.48,6.69-6.95,21.56.27,28.34,9.58,9,25.7,9.51,37.61,3.83Z"/>
  <path class="cls-1" d="M1313.43,363.92l-33.65.15-.03-54.21,40.54,1.02c14.68.37,21.05,15.02,20.29,28.21-.78,13.6-10.74,24.76-27.14,24.83ZM1311.01,357.44c14.74.06,21.71-10.53,20.92-22.57-.73-11.16-9.21-18.64-21.96-18.52l-21.7.2-.1,40.8,22.85.09Z"/>
  <path class="cls-1" d="M749.2,352.42c-11.08-2.86-22.22-.92-33.48-1.21-7.27-.19-4.97,17.18-18.01,12.12l27.32-52.82c1.16-2.23,8.26-1.95,10.64-.55l27.84,53.47c-3.81,2.04-7.76,1.13-10.08-1.1-1.57-1.51-2.78-5.57-4.23-9.91ZM744.16,344.06l-13.72-27.64-13.66,27.79,27.38-.15Z"/>
  <path class="cls-1" d="M530.81,333.91c1.75.02,2.05,5.62.69,6.14l-38.68.32-.47,23.35c-2.39.67-4.84.88-8-.09l.07-54.45,50.32.13c1.36.98,1.86,4.87.89,6.85l-42.5.21c-1.6,6.1-1.59,11.38-.09,17.17l37.78.36Z"/>
  <path class="cls-1" d="M1226.55,357.18c.28,2.14.34,4.85-.05,7.18l-43.18-.12.26-55.14,7.97.15.19,47.58,34.81.36Z"/>
  <rect class="cls-1" x="298.86" y="309.5" width="8.56" height="54.78"/>
</svg>