<?xml version="1.0" encoding="UTF-8"?>
<svg id="Layer_1" data-name="Layer 1" xmlns="http://www.w3.org/2000/svg" viewBox="0 0 857.23 352.28">
  <defs>
    <style>
      .cls-1 {
        fill: #c29a52;
      }
    </style>
  </defs>
  <path class="cls-1" d="M428.62,179.46h-218.95c-.44,0-.8-.36-.8-.8s.36-.8.8-.8h218.95c.44,0,.8.36.8.8s-.36.8-.8.8Z"/>
  <path class="cls-1" d="M428.62,187.01h-215.9c-.44,0-.8-.36-.8-.8s.36-.8.8-.8h215.9c.44,0,.8.36.8.8s-.36.8-.8.8Z"/>
  <path class="cls-1" d="M405.06,251.56h-7.29c-.44,0-.8-.36-.8-.8s.36-.8.8-.8h6.49v-11.13c0-14.69,23.07-23.94,24.06-24.33.41-.16.87.04,1.03.45s-.04.87-.45,1.03c-.23.09-23.05,9.25-23.05,22.85v11.93c0,.44-.36.8-.8.8Z"/>
  <path class="cls-1" d="M428.62,171.24h-15.59c-.44,0-.8-.36-.8-.8v-38.73c0-9.9,15.43-16.09,16.09-16.35.41-.17.87.04,1.03.45.16.41-.04.87-.45,1.03-.15.06-15.08,6.05-15.08,14.87v37.93h14.79c.44,0,.8.36.8.8s-.36.8-.8.8Z"/>
  <path class="cls-1" d="M428.62,329.22h-22.43c-.44,0-.8-.36-.8-.8v-6.1h-2.85c-.44,0-.8-.36-.8-.8v-64.68c0-.1.02-.21.06-.3l2.52-6.1c.17-.41.63-.6,1.04-.43.41.17.6.63.43,1.04l-2.46,5.95v63.72h2.85c.44,0,.8.36.8.8v6.1h21.64c.44,0,.8.36.8.8s-.36.8-.8.8Z"/>
  <path class="cls-1" d="M400.3,230.88c-.44,0-.8-.36-.8-.8v-27.57c0-.44.36-.8.8-.8h28.32c.44,0,.8.36.8.8s-.36.8-.8.8h-27.52v26.77c0,.44-.36.8-.8.8Z"/>
  <path class="cls-1" d="M397.77,251.56h-7.29c-.44,0-.8-.36-.8-.8v-11.93c0-13.61-22.82-22.76-23.05-22.85-.41-.16-.61-.62-.45-1.03.16-.41.62-.61,1.03-.45.98.39,24.06,9.64,24.06,24.33v11.13h6.5c.44,0,.8.36.8.8s-.36.8-.8.8Z"/>
  <path class="cls-1" d="M389.36,329.22h-22.43c-.44,0-.8-.36-.8-.8s.36-.8.8-.8h21.64v-6.1c0-.44.36-.8.8-.8h2.85v-63.72l-2.46-5.95c-.17-.41.02-.87.43-1.04.41-.17.87.02,1.04.43l2.52,6.1c.04.1.06.2.06.3v64.68c0,.44-.36.8-.8.8h-2.85v6.1c0,.44-.36.8-.8.8Z"/>
  <path class="cls-1" d="M395.25,230.88c-.44,0-.8-.36-.8-.8v-26.77h-27.52c-.44,0-.8-.36-.8-.8s.36-.8.8-.8h28.32c.44,0,.8.36.8.8v27.57c0,.44-.36.8-.8.8Z"/>
  <path class="cls-1" d="M343.38,251.56h-7.29c-.44,0-.8-.36-.8-.8s.36-.8.8-.8h6.49v-11.13c0-14.69,23.07-23.94,24.06-24.33.41-.16.87.04,1.03.45.16.41-.04.87-.45,1.03-.23.09-23.05,9.25-23.05,22.85v11.93c0,.44-.36.8-.8.8Z"/>
  <path class="cls-1" d="M366.93,329.22h-22.43c-.44,0-.8-.36-.8-.8v-6.1h-2.85c-.44,0-.8-.36-.8-.8v-64.68c0-.1.02-.21.06-.3l2.52-6.1c.17-.41.63-.6,1.04-.43.41.17.6.63.43,1.04l-2.46,5.95v63.72h2.85c.44,0,.8.36.8.8v6.1h21.64c.44,0,.8.36.8.8s-.36.8-.8.8Z"/>
  <path class="cls-1" d="M338.61,230.88c-.44,0-.8-.36-.8-.8v-27.57c0-.44.36-.8.8-.8h28.32c.44,0,.8.36.8.8s-.36.8-.8.8h-27.52v26.77c0,.44-.36.8-.8.8Z"/>
  <path class="cls-1" d="M336.09,251.56h-7.29c-.44,0-.8-.36-.8-.8v-11.93c0-13.61-22.82-22.76-23.05-22.85-.41-.16-.61-.62-.45-1.03s.62-.61,1.03-.45c.98.39,24.06,9.64,24.06,24.33v11.13h6.5c.44,0,.8.36.8.8s-.36.8-.8.8Z"/>
  <path class="cls-1" d="M327.68,329.22h-22.43c-.44,0-.8-.36-.8-.8s.36-.8.8-.8h21.64v-6.1c0-.44.36-.8.8-.8h2.85v-63.72l-2.46-5.95c-.17-.41.02-.87.43-1.04.41-.17.87.02,1.04.43l2.52,6.1c.04.1.06.2.06.3v64.68c0,.44-.36.8-.8.8h-2.85v6.1c0,.44-.36.8-.8.8Z"/>
  <path class="cls-1" d="M333.56,230.88c-.44,0-.8-.36-.8-.8v-26.77h-27.52c-.44,0-.8-.36-.8-.8s.36-.8.8-.8h28.32c.44,0,.8.36.8.8v27.57c0,.44-.36.8-.8.8Z"/>
  <path class="cls-1" d="M281.69,251.56h-7.29c-.44,0-.8-.36-.8-.8s.36-.8.8-.8h6.5v-11.13c0-14.69,23.07-23.94,24.06-24.33.41-.16.87.04,1.03.45.16.41-.04.87-.45,1.03-.23.09-23.05,9.25-23.05,22.85v11.93c0,.44-.36.8-.8.8Z"/>
  <path class="cls-1" d="M305.25,329.22h-22.43c-.44,0-.8-.36-.8-.8v-6.1h-2.85c-.44,0-.8-.36-.8-.8v-64.68c0-.1.02-.21.06-.3l2.52-6.1c.17-.41.64-.6,1.04-.43.41.17.6.63.43,1.04l-2.46,5.95v63.72h2.85c.44,0,.8.36.8.8v6.1h21.64c.44,0,.8.36.8.8s-.36.8-.8.8Z"/>
  <path class="cls-1" d="M276.93,230.88c-.44,0-.8-.36-.8-.8v-27.57c0-.44.36-.8.8-.8h28.32c.44,0,.8.36.8.8s-.36.8-.8.8h-27.52v26.77c0,.44-.36.8-.8.8Z"/>
  <path class="cls-1" d="M274.4,251.56h-7.29c-.44,0-.8-.36-.8-.8v-11.93c0-13.61-22.82-22.76-23.05-22.85-.41-.16-.61-.62-.45-1.03.16-.41.62-.61,1.03-.45.98.39,24.06,9.64,24.06,24.33v11.13h6.49c.44,0,.8.36.8.8s-.36.8-.8.8Z"/>
  <path class="cls-1" d="M265.99,329.22h-22.43c-.44,0-.8-.36-.8-.8s.36-.8.8-.8h21.64v-6.1c0-.44.36-.8.8-.8h2.85v-63.72l-2.46-5.95c-.17-.41.02-.87.43-1.04.41-.17.87.02,1.04.43l2.52,6.1c.04.1.06.2.06.3v64.68c0,.44-.36.8-.8.8h-2.85v6.1c0,.44-.36.8-.8.8Z"/>
  <path class="cls-1" d="M271.88,230.88c-.44,0-.8-.36-.8-.8v-26.77h-27.52c-.44,0-.8-.36-.8-.8s.36-.8.8-.8h28.32c.44,0,.8.36.8.8v27.57c0,.44-.36.8-.8.8Z"/>
  <path class="cls-1" d="M220.01,251.56h-7.29c-.44,0-.8-.36-.8-.8s.36-.8.8-.8h6.5v-11.13c0-14.69,23.07-23.94,24.06-24.33.41-.16.87.04,1.03.45.16.41-.04.87-.45,1.03-.23.09-23.05,9.25-23.05,22.85v11.93c0,.44-.36.8-.8.8Z"/>
  <path class="cls-1" d="M243.56,329.22h-22.43c-.44,0-.8-.36-.8-.8v-6.1h-2.85c-.44,0-.8-.36-.8-.8v-64.68c0-.1.02-.21.06-.3l2.52-6.1c.17-.41.64-.6,1.04-.43.41.17.6.63.43,1.04l-2.46,5.95v63.72h2.85c.44,0,.8.36.8.8v6.1h21.64c.44,0,.8.36.8.8s-.36.8-.8.8Z"/>
  <path class="cls-1" d="M215.24,230.88c-.44,0-.8-.36-.8-.8v-27.57c0-.44.36-.8.8-.8h28.32c.44,0,.8.36.8.8s-.36.8-.8.8h-27.52v26.77c0,.44-.36.8-.8.8Z"/>
  <path class="cls-1" d="M225.05,218.16c-3.21,0-5.83-2.62-5.83-5.83s2.61-5.83,5.83-5.83,5.83,2.62,5.83,5.83-2.61,5.83-5.83,5.83ZM225.05,208.09c-2.34,0-4.24,1.9-4.24,4.24s1.9,4.24,4.24,4.24,4.24-1.9,4.24-4.24-1.9-4.24-4.24-4.24Z"/>
  <path class="cls-1" d="M122.72,227.97c-3.21,0-5.83-2.62-5.83-5.83s2.61-5.83,5.83-5.83,5.83,2.62,5.83,5.83-2.61,5.83-5.83,5.83ZM122.72,217.9c-2.34,0-4.24,1.9-4.24,4.24s1.9,4.24,4.24,4.24,4.24-1.9,4.24-4.24-1.9-4.24-4.24-4.24Z"/>
  <path class="cls-1" d="M261.63,218.16c-3.21,0-5.83-2.62-5.83-5.83s2.61-5.83,5.83-5.83,5.83,2.62,5.83,5.83-2.61,5.83-5.83,5.83ZM261.63,208.09c-2.34,0-4.24,1.9-4.24,4.24s1.9,4.24,4.24,4.24,4.24-1.9,4.24-4.24-1.9-4.24-4.24-4.24Z"/>
  <path class="cls-1" d="M286.95,218.16c-3.21,0-5.83-2.62-5.83-5.83s2.61-5.83,5.83-5.83,5.83,2.62,5.83,5.83-2.61,5.83-5.83,5.83ZM286.95,208.09c-2.34,0-4.24,1.9-4.24,4.24s1.9,4.24,4.24,4.24,4.24-1.9,4.24-4.24-1.9-4.24-4.24-4.24Z"/>
  <path class="cls-1" d="M323.54,218.16c-3.21,0-5.83-2.62-5.83-5.83s2.61-5.83,5.83-5.83,5.83,2.62,5.83,5.83-2.61,5.83-5.83,5.83ZM323.54,208.09c-2.34,0-4.24,1.9-4.24,4.24s1.9,4.24,4.24,4.24,4.24-1.9,4.24-4.24-1.9-4.24-4.24-4.24Z"/>
  <path class="cls-1" d="M348.64,218.16c-3.21,0-5.83-2.62-5.83-5.83s2.61-5.83,5.83-5.83,5.83,2.62,5.83,5.83-2.61,5.83-5.83,5.83ZM348.64,208.09c-2.34,0-4.24,1.9-4.24,4.24s1.9,4.24,4.24,4.24,4.24-1.9,4.24-4.24-1.9-4.24-4.24-4.24Z"/>
  <path class="cls-1" d="M385.22,218.16c-3.21,0-5.83-2.62-5.83-5.83s2.61-5.83,5.83-5.83,5.83,2.62,5.83,5.83-2.61,5.83-5.83,5.83ZM385.22,208.09c-2.34,0-4.24,1.9-4.24,4.24s1.9,4.24,4.24,4.24,4.24-1.9,4.24-4.24-1.9-4.24-4.24-4.24Z"/>
  <path class="cls-1" d="M410.32,218.16c-3.21,0-5.83-2.62-5.83-5.83s2.61-5.83,5.83-5.83,5.83,2.62,5.83,5.83-2.61,5.83-5.83,5.83ZM410.32,208.09c-2.34,0-4.24,1.9-4.24,4.24s1.9,4.24,4.24,4.24,4.24-1.9,4.24-4.24-1.9-4.24-4.24-4.24Z"/>
  <path class="cls-1" d="M414.46,118.75c-3.21,0-5.83-2.61-5.83-5.83s2.61-5.83,5.83-5.83,5.83,2.62,5.83,5.83-2.61,5.83-5.83,5.83ZM414.46,108.69c-2.34,0-4.24,1.9-4.24,4.24s1.9,4.24,4.24,4.24,4.24-1.9,4.24-4.24-1.9-4.24-4.24-4.24Z"/>
  <path class="cls-1" d="M355.66,118.75c-3.21,0-5.83-2.61-5.83-5.83s2.61-5.83,5.83-5.83,5.83,2.62,5.83,5.83-2.61,5.83-5.83,5.83ZM355.66,108.69c-2.34,0-4.24,1.9-4.24,4.24s1.9,4.24,4.24,4.24,4.24-1.9,4.24-4.24-1.9-4.24-4.24-4.24Z"/>
  <path class="cls-1" d="M382.35,118.75c-3.21,0-5.83-2.61-5.83-5.83s2.61-5.83,5.83-5.83,5.83,2.62,5.83,5.83-2.61,5.83-5.83,5.83ZM382.35,108.69c-2.34,0-4.24,1.9-4.24,4.24s1.9,4.24,4.24,4.24,4.24-1.9,4.24-4.24-1.9-4.24-4.24-4.24Z"/>
  <path class="cls-1" d="M422.78,191.12c-.44,0-.8-.36-.8-.8v-4.11c0-.44.36-.8.8-.8s.8.36.8.8v4.11c0,.44-.36.8-.8.8Z"/>
  <path class="cls-1" d="M413.19,191.12c-.44,0-.8-.36-.8-.8v-4.11c0-.44.36-.8.8-.8s.8.36.8.8v4.11c0,.44-.36.8-.8.8Z"/>
  <path class="cls-1" d="M403.6,191.12c-.44,0-.8-.36-.8-.8v-4.11c0-.44.36-.8.8-.8s.8.36.8.8v4.11c0,.44-.36.8-.8.8Z"/>
  <path class="cls-1" d="M394.02,191.12c-.44,0-.8-.36-.8-.8v-4.11c0-.44.36-.8.8-.8s.8.36.8.8v4.11c0,.44-.36.8-.8.8Z"/>
  <path class="cls-1" d="M384.43,191.12c-.44,0-.8-.36-.8-.8v-4.11c0-.44.36-.8.8-.8s.8.36.8.8v4.11c0,.44-.36.8-.8.8Z"/>
  <path class="cls-1" d="M374.84,191.12c-.44,0-.8-.36-.8-.8v-4.11c0-.44.36-.8.8-.8s.8.36.8.8v4.11c0,.44-.36.8-.8.8Z"/>
  <path class="cls-1" d="M365.25,191.12c-.44,0-.8-.36-.8-.8v-4.11c0-.44.36-.8.8-.8s.8.36.8.8v4.11c0,.44-.36.8-.8.8Z"/>
  <path class="cls-1" d="M355.66,191.12c-.44,0-.8-.36-.8-.8v-4.11c0-.44.36-.8.8-.8s.8.36.8.8v4.11c0,.44-.36.8-.8.8Z"/>
  <path class="cls-1" d="M346.07,191.12c-.44,0-.8-.36-.8-.8v-4.11c0-.44.36-.8.8-.8s.8.36.8.8v4.11c0,.44-.36.8-.8.8Z"/>
  <path class="cls-1" d="M336.48,191.12c-.44,0-.8-.36-.8-.8v-4.11c0-.44.36-.8.8-.8s.8.36.8.8v4.11c0,.44-.36.8-.8.8Z"/>
  <path class="cls-1" d="M422.78,81.51c-.44,0-.8-.36-.8-.8v-4.11c0-.44.36-.8.8-.8s.8.36.8.8v4.11c0,.44-.36.8-.8.8Z"/>
  <path class="cls-1" d="M413.19,81.51c-.44,0-.8-.36-.8-.8v-4.11c0-.44.36-.8.8-.8s.8.36.8.8v4.11c0,.44-.36.8-.8.8Z"/>
  <path class="cls-1" d="M403.6,81.51c-.44,0-.8-.36-.8-.8v-4.11c0-.44.36-.8.8-.8s.8.36.8.8v4.11c0,.44-.36.8-.8.8Z"/>
  <path class="cls-1" d="M394.02,81.51c-.44,0-.8-.36-.8-.8v-4.11c0-.44.36-.8.8-.8s.8.36.8.8v4.11c0,.44-.36.8-.8.8Z"/>
  <path class="cls-1" d="M384.43,81.51c-.44,0-.8-.36-.8-.8v-4.11c0-.44.36-.8.8-.8s.8.36.8.8v4.11c0,.44-.36.8-.8.8Z"/>
  <path class="cls-1" d="M374.84,81.51c-.44,0-.8-.36-.8-.8v-4.11c0-.44.36-.8.8-.8s.8.36.8.8v4.11c0,.44-.36.8-.8.8Z"/>
  <path class="cls-1" d="M365.25,81.51c-.44,0-.8-.36-.8-.8v-4.11c0-.44.36-.8.8-.8s.8.36.8.8v4.11c0,.44-.36.8-.8.8Z"/>
  <path class="cls-1" d="M355.66,81.51c-.44,0-.8-.36-.8-.8v-4.11c0-.44.36-.8.8-.8s.8.36.8.8v4.11c0,.44-.36.8-.8.8Z"/>
  <path class="cls-1" d="M346.07,81.51c-.44,0-.8-.36-.8-.8v-4.11c0-.44.36-.8.8-.8s.8.36.8.8v4.11c0,.44-.36.8-.8.8Z"/>
  <path class="cls-1" d="M336.48,81.51c-.44,0-.8-.36-.8-.8v-4.11c0-.44.36-.8.8-.8s.8.36.8.8v4.11c0,.44-.36.8-.8.8Z"/>
  <path class="cls-1" d="M326.89,191.12c-.44,0-.8-.36-.8-.8v-4.11c0-.44.36-.8.8-.8s.8.36.8.8v4.11c0,.44-.36.8-.8.8Z"/>
  <path class="cls-1" d="M317.3,191.12c-.44,0-.8-.36-.8-.8v-4.11c0-.44.36-.8.8-.8s.8.36.8.8v4.11c0,.44-.36.8-.8.8Z"/>
  <path class="cls-1" d="M307.71,191.12c-.44,0-.8-.36-.8-.8v-4.11c0-.44.36-.8.8-.8s.8.36.8.8v4.11c0,.44-.36.8-.8.8Z"/>
  <path class="cls-1" d="M298.12,191.12c-.44,0-.8-.36-.8-.8v-4.11c0-.44.36-.8.8-.8s.8.36.8.8v4.11c0,.44-.36.8-.8.8Z"/>
  <path class="cls-1" d="M288.53,191.12c-.44,0-.8-.36-.8-.8v-4.11c0-.44.36-.8.8-.8s.8.36.8.8v4.11c0,.44-.36.8-.8.8Z"/>
  <path class="cls-1" d="M278.94,191.12c-.44,0-.8-.36-.8-.8v-4.11c0-.44.36-.8.8-.8s.8.36.8.8v4.11c0,.44-.36.8-.8.8Z"/>
  <path class="cls-1" d="M269.35,191.12c-.44,0-.8-.36-.8-.8v-4.11c0-.44.36-.8.8-.8s.8.36.8.8v4.11c0,.44-.36.8-.8.8Z"/>
  <path class="cls-1" d="M259.76,191.12c-.44,0-.8-.36-.8-.8v-4.11c0-.44.36-.8.8-.8s.8.36.8.8v4.11c0,.44-.36.8-.8.8Z"/>
  <path class="cls-1" d="M250.17,191.12c-.44,0-.8-.36-.8-.8v-4.11c0-.44.36-.8.8-.8s.8.36.8.8v4.11c0,.44-.36.8-.8.8Z"/>
  <path class="cls-1" d="M240.58,191.12c-.44,0-.8-.36-.8-.8v-4.11c0-.44.36-.8.8-.8s.8.36.8.8v4.11c0,.44-.36.8-.8.8Z"/>
  <path class="cls-1" d="M230.99,191.12c-.44,0-.8-.36-.8-.8v-4.11c0-.44.36-.8.8-.8s.8.36.8.8v4.11c0,.44-.36.8-.8.8Z"/>
  <path class="cls-1" d="M221.4,191.12c-.44,0-.8-.36-.8-.8v-4.11c0-.44.36-.8.8-.8s.8.36.8.8v4.11c0,.44-.36.8-.8.8Z"/>
  <path class="cls-1" d="M317.3,85.69c-.44,0-.8-.36-.8-.8v-4.11c0-.44.36-.8.8-.8s.8.36.8.8v4.11c0,.44-.36.8-.8.8Z"/>
  <path class="cls-1" d="M307.71,85.69c-.44,0-.8-.36-.8-.8v-4.11c0-.44.36-.8.8-.8s.8.36.8.8v4.11c0,.44-.36.8-.8.8Z"/>
  <path class="cls-1" d="M298.12,85.69c-.44,0-.8-.36-.8-.8v-4.11c0-.44.36-.8.8-.8s.8.36.8.8v4.11c0,.44-.36.8-.8.8Z"/>
  <path class="cls-1" d="M288.53,85.69c-.44,0-.8-.36-.8-.8v-4.11c0-.44.36-.8.8-.8s.8.36.8.8v4.11c0,.44-.36.8-.8.8Z"/>
  <path class="cls-1" d="M278.94,85.69c-.44,0-.8-.36-.8-.8v-4.11c0-.44.36-.8.8-.8s.8.36.8.8v4.11c0,.44-.36.8-.8.8Z"/>
  <path class="cls-1" d="M269.35,85.69c-.44,0-.8-.36-.8-.8v-4.11c0-.44.36-.8.8-.8s.8.36.8.8v4.11c0,.44-.36.8-.8.8Z"/>
  <path class="cls-1" d="M259.76,85.69c-.44,0-.8-.36-.8-.8v-4.11c0-.44.36-.8.8-.8s.8.36.8.8v4.11c0,.44-.36.8-.8.8Z"/>
  <path class="cls-1" d="M250.17,85.69c-.44,0-.8-.36-.8-.8v-4.11c0-.44.36-.8.8-.8s.8.36.8.8v4.11c0,.44-.36.8-.8.8Z"/>
  <path class="cls-1" d="M240.58,85.69c-.44,0-.8-.36-.8-.8v-4.11c0-.44.36-.8.8-.8s.8.36.8.8v4.11c0,.44-.36.8-.8.8Z"/>
  <path class="cls-1" d="M230.99,85.69c-.44,0-.8-.36-.8-.8v-4.11c0-.44.36-.8.8-.8s.8.36.8.8v4.11c0,.44-.36.8-.8.8Z"/>
  <path class="cls-1" d="M203.14,85.69c-.44,0-.8-.36-.8-.8v-4.11c0-.44.36-.8.8-.8s.8.36.8.8v4.11c0,.44-.36.8-.8.8Z"/>
  <path class="cls-1" d="M193.55,85.69c-.44,0-.8-.36-.8-.8v-4.11c0-.44.36-.8.8-.8s.8.36.8.8v4.11c0,.44-.36.8-.8.8Z"/>
  <path class="cls-1" d="M183.96,85.69c-.44,0-.8-.36-.8-.8v-4.11c0-.44.36-.8.8-.8s.8.36.8.8v4.11c0,.44-.36.8-.8.8Z"/>
  <path class="cls-1" d="M153.96,191.12c-.44,0-.8-.36-.8-.8v-4.11c0-.44.36-.8.8-.8s.8.36.8.8v4.11c0,.44-.36.8-.8.8Z"/>
  <path class="cls-1" d="M144.37,191.12c-.44,0-.8-.36-.8-.8v-4.11c0-.44.36-.8.8-.8s.8.36.8.8v4.11c0,.44-.36.8-.8.8Z"/>
  <path class="cls-1" d="M134.78,191.12c-.44,0-.8-.36-.8-.8v-4.11c0-.44.36-.8.8-.8s.8.36.8.8v4.11c0,.44-.36.8-.8.8Z"/>
  <path class="cls-1" d="M125.19,191.12c-.44,0-.8-.36-.8-.8v-4.11c0-.44.36-.8.8-.8s.8.36.8.8v4.11c0,.44-.36.8-.8.8Z"/>
  <path class="cls-1" d="M115.6,191.12c-.44,0-.8-.36-.8-.8v-4.11c0-.44.36-.8.8-.8s.8.36.8.8v4.11c0,.44-.36.8-.8.8Z"/>
  <path class="cls-1" d="M106.01,191.12c-.44,0-.8-.36-.8-.8v-4.11c0-.44.36-.8.8-.8s.8.36.8.8v4.11c0,.44-.36.8-.8.8Z"/>
  <path class="cls-1" d="M208.34,336.38c-.44,0-.8-.36-.8-.8v-7.16c0-.44.36-.8.8-.8h12.79c.44,0,.8.36.8.8s-.36.8-.8.8h-11.99v6.36c0,.44-.36.8-.8.8Z"/>
  <path class="cls-1" d="M201.95,343.54c-.44,0-.8-.36-.8-.8v-7.16c0-.44.36-.8.8-.8h226.66c.44,0,.8.36.8.8s-.36.8-.8.8h-225.87v6.36c0,.44-.36.8-.8.8Z"/>
  <path class="cls-1" d="M195.56,350.69c-.44,0-.8-.36-.8-.8v-7.16c0-.44.36-.8.8-.8h233.06c.44,0,.8.36.8.8s-.36.8-.8.8h-232.26v6.36c0,.44-.36.8-.8.8Z"/>
  <path class="cls-1" d="M135.72,313.32h-29.69c-.44,0-.8-.36-.8-.8s.36-.8.8-.8h28.89v-51.16c0-18.83-28.88-29.63-29.17-29.74-.41-.15-.62-.61-.47-1.02s.61-.62,1.02-.47c1.23.45,30.21,11.29,30.21,31.23v51.96c0,.44-.36.8-.8.8Z"/>
  <path class="cls-1" d="M201.95,187.01h-17.99c-.44,0-.8-.36-.8-.8s.36-.8.8-.8h17.67l6.09-5.96h-23.76c-.44,0-.8-.36-.8-.8s.36-.8.8-.8h25.71c.32,0,.61.2.74.5.12.3.05.64-.18.87l-7.72,7.55c-.15.15-.35.23-.56.23Z"/>
  <path class="cls-1" d="M201.95,329.22c-.44,0-.8-.36-.8-.8v-142.21c0-.44.36-.8.8-.8s.8.36.8.8v142.21c0,.44-.36.8-.8.8Z"/>
  <path class="cls-1" d="M192.44,258.12h-8.48c-.44,0-.8-.36-.8-.8s.36-.8.8-.8h7.69v-49.23c0-2.67-2.35-4.1-4.62-5.49-1.99-1.21-3.87-2.36-3.87-4.33,0-.44.36-.8.8-.8s.8.36.8.8c0,1.07,1.44,1.95,3.11,2.97,2.39,1.46,5.38,3.28,5.38,6.84v50.03c0,.44-.36.8-.8.8Z"/>
  <path class="cls-1" d="M192.44,329.22h-8.48c-.44,0-.8-.36-.8-.8s.36-.8.8-.8h7.69v-49.23c0-2.67-2.35-4.1-4.62-5.49-1.99-1.21-3.87-2.36-3.87-4.32,0-.44.36-.8.8-.8s.8.36.8.8c0,1.07,1.44,1.95,3.1,2.97,2.4,1.46,5.38,3.28,5.38,6.84v50.03c0,.44-.36.8-.8.8Z"/>
  <path class="cls-1" d="M198.27,179.46c-.44,0-.8-.36-.8-.8v-23.59c0-.24.11-.46.29-.61l4.39-3.63h-18.2c-.44,0-.8-.36-.8-.8s.36-.8.8-.8h20.41c.34,0,.63.21.75.53.11.32.02.67-.24.88l-5.81,4.8v23.22c0,.44-.36.8-.8.8Z"/>
  <path class="cls-1" d="M194.29,150.83c-.44,0-.8-.36-.8-.8v-23.59c0-.24.11-.46.29-.61l4.39-3.63h-14.22c-.44,0-.8-.36-.8-.8s.36-.8.8-.8h16.43c.34,0,.63.21.75.53.11.32.02.67-.24.88l-5.81,4.8v23.22c0,.44-.36.8-.8.8Z"/>
  <path class="cls-1" d="M196.81,122.2c-.44,0-.8-.36-.8-.8,0-8.8-3.63-10.91-7.13-12.96-2.3-1.34-4.67-2.72-5.69-5.88-.13-.42.1-.87.51-1,.42-.14.87.09,1,.51.83,2.58,2.75,3.7,4.97,5,3.71,2.16,7.92,4.61,7.92,14.33,0,.44-.36.8-.8.8Z"/>
  <path class="cls-1" d="M183.96,187.01h-17.99c-.21,0-.41-.08-.56-.23l-7.72-7.55c-.23-.23-.3-.57-.18-.87.12-.3.41-.5.74-.5h25.71c.44,0,.8.36.8.8s-.36.8-.8.8h-23.76l6.09,5.96h17.67c.44,0,.8.36.8.8s-.36.8-.8.8Z"/>
  <path class="cls-1" d="M165.96,329.22c-.44,0-.8-.36-.8-.8v-142.21c0-.44.36-.8.8-.8s.8.36.8.8v142.21c0,.44-.36.8-.8.8Z"/>
  <path class="cls-1" d="M183.96,258.12h-8.48c-.44,0-.8-.36-.8-.8v-50.03c0-3.56,2.98-5.38,5.38-6.84,1.67-1.02,3.11-1.9,3.11-2.97,0-.44.36-.8.8-.8s.8.36.8.8c0,1.96-1.88,3.11-3.87,4.33-2.27,1.39-4.62,2.82-4.62,5.49v49.23h7.69c.44,0,.8.36.8.8s-.36.8-.8.8Z"/>
  <path class="cls-1" d="M183.96,329.22h-8.48c-.44,0-.8-.36-.8-.8v-50.03c0-3.56,2.98-5.38,5.38-6.84,1.67-1.02,3.1-1.9,3.1-2.97,0-.44.36-.8.8-.8s.8.36.8.8c0,1.96-1.88,3.11-3.87,4.32-2.27,1.39-4.62,2.82-4.62,5.49v49.23h7.69c.44,0,.8.36.8.8s-.36.8-.8.8Z"/>
  <path class="cls-1" d="M169.64,179.46c-.44,0-.8-.36-.8-.8v-23.22l-5.81-4.8c-.26-.21-.36-.57-.24-.88.11-.32.41-.53.75-.53h20.41c.44,0,.8.36.8.8s-.36.8-.8.8h-18.2l4.39,3.63c.18.15.29.38.29.61v23.59c0,.44-.36.8-.8.8Z"/>
  <path class="cls-1" d="M173.62,150.83c-.44,0-.8-.36-.8-.8v-23.22l-5.81-4.8c-.26-.21-.36-.57-.24-.88.11-.32.41-.53.75-.53h16.43c.44,0,.8.35.8.79s-.36.8-.8.8h-14.22s4.39,3.63,4.39,3.63c.18.15.29.38.29.61v23.59c0,.44-.36.8-.8.8Z"/>
  <path class="cls-1" d="M171.1,122.2c-.44,0-.8-.36-.8-.8,0-9.72,4.21-12.17,7.92-14.33,2.22-1.3,4.14-2.41,4.97-5,.14-.42.59-.65,1-.51.42.13.65.58.51,1-1.02,3.16-3.39,4.55-5.69,5.88-3.51,2.04-7.13,4.15-7.13,12.96,0,.44-.36.8-.8.8Z"/>
  <path class="cls-1" d="M208.34,329.22h-102.32c-.44,0-.8-.36-.8-.8s.36-.8.8-.8h102.32c.44,0,.8.36.8.8s-.36.8-.8.8Z"/>
  <path class="cls-1" d="M158.25,179.46h-52.22c-.44,0-.8-.36-.8-.8s.36-.8.8-.8h52.22c.44,0,.8.36.8.8s-.36.8-.8.8Z"/>
  <path class="cls-1" d="M156.13,187.01h-50.1c-.44,0-.8-.36-.8-.8s.36-.8.8-.8h50.1c.44,0,.8.36.8.8s-.36.8-.8.8Z"/>
  <path class="cls-1" d="M153.96,329.22c-.44,0-.8-.36-.8-.8v-130.15h-47.14c-.44,0-.8-.36-.8-.8s.36-.8.8-.8h47.93c.44,0,.8.36.8.8v130.94c0,.44-.36.8-.8.8Z"/>
  <path class="cls-1" d="M135.72,261.36c-.44,0-.8-.36-.8-.8v-50.63h-28.89c-.44,0-.8-.36-.8-.8s.36-.8.8-.8h29.69c.44,0,.8.36.8.8v51.42c0,.44-.36.8-.8.8Z"/>
  <path class="cls-1" d="M163.55,150.83h-10.6c-.44,0-.8-.36-.8-.8s.36-.8.8-.8h10.6c.44,0,.8.36.8.8s-.36.8-.8.8Z"/>
  <path class="cls-1" d="M188.2,150.83c-.44,0-.8-.36-.8-.8v-12.72c0-3.88-3.58-5.29-3.73-5.35-.41-.16-.62-.62-.46-1.03.15-.41.61-.62,1.02-.46.19.07,4.76,1.84,4.76,6.84v12.72c0,.44-.36.8-.8.8Z"/>
  <path class="cls-1" d="M179.72,150.83c-.44,0-.8-.36-.8-.8v-12.72c0-5,4.56-6.77,4.76-6.84.41-.16.87.05,1.02.46s-.05.87-.46,1.03c-.15.06-3.73,1.47-3.73,5.35v12.72c0,.44-.36.8-.8.8Z"/>
  <path class="cls-1" d="M183.96,336.38h-77.93c-.44,0-.8-.36-.8-.8s.36-.8.8-.8h77.93c.44,0,.8.36.8.8s-.36.8-.8.8Z"/>
  <path class="cls-1" d="M165.96,343.54h-59.94c-.44,0-.8-.36-.8-.8s.36-.8.8-.8h59.94c.44,0,.8.36.8.8s-.36.8-.8.8Z"/>
  <path class="cls-1" d="M111.86,168.06c-.44,0-.8-.36-.8-.8,0-5.89-5.02-7.13-5.23-7.18-.43-.1-.69-.53-.59-.95s.52-.7.95-.6c.07.01,6.47,1.55,6.47,8.73,0,.44-.36.8-.8.8Z"/>
  <path class="cls-1" d="M111.86,168.06c-.44,0-.8-.36-.8-.8,0-7.18,6.41-8.71,6.47-8.73.42-.1.85.17.95.6s-.17.85-.59.95c-.21.05-5.23,1.29-5.23,7.18,0,.44-.36.8-.8.8Z"/>
  <path class="cls-1" d="M123.56,168.06c-.44,0-.8-.36-.8-.8,0-5.89-5.02-7.13-5.23-7.18-.43-.1-.69-.53-.59-.95s.52-.7.95-.6c.07.01,6.47,1.55,6.47,8.73,0,.44-.36.8-.8.8Z"/>
  <path class="cls-1" d="M123.56,168.06c-.44,0-.8-.36-.8-.8,0-7.18,6.41-8.71,6.47-8.73.43-.1.85.17.95.6s-.17.85-.59.95c-.21.05-5.23,1.29-5.23,7.18,0,.44-.36.8-.8.8Z"/>
  <path class="cls-1" d="M135.26,168.06c-.44,0-.8-.36-.8-.8,0-5.89-5.02-7.13-5.23-7.18-.43-.1-.69-.53-.59-.95s.53-.7.95-.6c.07.01,6.47,1.55,6.47,8.73,0,.44-.36.8-.8.8Z"/>
  <path class="cls-1" d="M135.26,168.06c-.44,0-.8-.36-.8-.8,0-7.18,6.4-8.71,6.47-8.73.43-.1.85.17.95.6.1.43-.17.85-.59.95-.21.05-5.23,1.29-5.23,7.18,0,.44-.36.8-.8.8Z"/>
  <path class="cls-1" d="M146.96,168.06c-.44,0-.8-.36-.8-.8,0-5.89-5.02-7.13-5.23-7.18-.43-.1-.69-.53-.59-.95s.53-.7.95-.6c.07.01,6.47,1.55,6.47,8.73,0,.44-.36.8-.8.8Z"/>
  <path class="cls-1" d="M146.96,168.06c-.44,0-.8-.36-.8-.8,0-7.18,6.41-8.71,6.47-8.73.43-.1.85.17.95.6.1.43-.17.85-.59.95-.21.05-5.23,1.29-5.23,7.18,0,.44-.36.8-.8.8Z"/>
  <path class="cls-1" d="M158.66,168.06c-.44,0-.8-.36-.8-.8,0-5.89-5.02-7.13-5.23-7.18-.43-.1-.69-.53-.59-.95s.53-.7.95-.6c.07.01,6.47,1.55,6.47,8.73,0,.44-.36.8-.8.8Z"/>
  <path class="cls-1" d="M158.66,168.06c-.44,0-.8-.36-.8-.8,0-7.18,6.4-8.71,6.47-8.73.43-.1.85.17.95.6.1.43-.17.85-.59.95-.21.05-5.23,1.29-5.23,7.18,0,.44-.36.8-.8.8Z"/>
  <path class="cls-1" d="M89.33,227.97c-3.21,0-5.83-2.62-5.83-5.83s2.61-5.83,5.83-5.83,5.83,2.62,5.83,5.83-2.61,5.83-5.83,5.83ZM89.33,217.9c-2.34,0-4.24,1.9-4.24,4.24s1.9,4.24,4.24,4.24,4.24-1.9,4.24-4.24-1.9-4.24-4.24-4.24Z"/>
  <path class="cls-1" d="M58.1,191.12c-.44,0-.8-.36-.8-.8v-4.11c0-.44.36-.8.8-.8s.8.36.8.8v4.11c0,.44-.36.8-.8.8Z"/>
  <path class="cls-1" d="M67.69,191.12c-.44,0-.8-.36-.8-.8v-4.11c0-.44.36-.8.8-.8s.8.36.8.8v4.11c0,.44-.36.8-.8.8Z"/>
  <path class="cls-1" d="M77.28,191.12c-.44,0-.8-.36-.8-.8v-4.11c0-.44.36-.8.8-.8s.8.36.8.8v4.11c0,.44-.36.8-.8.8Z"/>
  <path class="cls-1" d="M86.87,191.12c-.44,0-.8-.36-.8-.8v-4.11c0-.44.36-.8.8-.8s.8.36.8.8v4.11c0,.44-.36.8-.8.8Z"/>
  <path class="cls-1" d="M96.46,191.12c-.44,0-.8-.36-.8-.8v-4.11c0-.44.36-.8.8-.8s.8.36.8.8v4.11c0,.44-.36.8-.8.8Z"/>
  <path class="cls-1" d="M106.05,191.12c-.44,0-.8-.36-.8-.8v-4.11c0-.44.36-.8.8-.8s.8.36.8.8v4.11c0,.44-.36.8-.8.8Z"/>
  <path class="cls-1" d="M106.03,313.32h-29.69c-.44,0-.8-.36-.8-.8v-51.96c0-19.94,28.98-30.78,30.21-31.23.41-.15.87.06,1.02.47.15.41-.06.87-.47,1.02-.29.11-29.17,10.91-29.17,29.74v51.16h28.89c.44,0,.8.36.8.8s-.36.8-.8.8Z"/>
  <path class="cls-1" d="M28.1,187.01H10.1c-.44,0-.8-.36-.8-.8s.36-.8.8-.8h17.99c.44,0,.8.36.8.8s-.36.8-.8.8Z"/>
  <path class="cls-1" d="M28.1,179.46h-14.3c-.44,0-.8-.36-.8-.8s.36-.8.8-.8h14.3c.44,0,.8.36.8.8s-.36.8-.8.8Z"/>
  <path class="cls-1" d="M28.1,258.12h-8.48c-.44,0-.8-.36-.8-.8v-50.03c0-3.56,2.98-5.38,5.38-6.84,1.67-1.02,3.11-1.9,3.11-2.97,0-.44.36-.8.8-.8s.8.36.8.8c0,1.96-1.88,3.11-3.87,4.33-2.27,1.39-4.62,2.82-4.62,5.49v49.23h7.69c.44,0,.8.36.8.8s-.36.8-.8.8Z"/>
  <path class="cls-1" d="M28.1,329.22h-8.48c-.44,0-.8-.36-.8-.8v-50.03c0-3.56,2.98-5.38,5.38-6.84,1.67-1.02,3.1-1.9,3.1-2.97,0-.44.36-.8.8-.8s.8.36.8.8c0,1.96-1.88,3.11-3.87,4.32-2.27,1.39-4.62,2.82-4.62,5.49v49.23h7.69c.44,0,.8.36.8.8s-.36.8-.8.8Z"/>
  <path class="cls-1" d="M28.1,150.83h-10.32c-.44,0-.8-.36-.8-.8s.36-.8.8-.8h10.32c.44,0,.8.36.8.8s-.36.8-.8.8Z"/>
  <path class="cls-1" d="M15.25,122.2c-.44,0-.8-.36-.8-.8s.36-.8.8-.8h12.85c.44,0,.8.35.8.79s-.36.8-.8.8h-12.85Z"/>
  <path class="cls-1" d="M46.09,187.01h-17.99c-.44,0-.8-.36-.8-.8s.36-.8.8-.8h17.67l6.09-5.96h-23.76c-.44,0-.8-.36-.8-.8s.36-.8.8-.8h25.71c.32,0,.61.2.74.5.12.3.05.64-.18.87l-7.72,7.55c-.15.15-.35.23-.56.23Z"/>
  <path class="cls-1" d="M46.09,329.22c-.44,0-.8-.36-.8-.8v-142.21c0-.44.36-.8.8-.8s.8.36.8.8v142.21c0,.44-.36.8-.8.8Z"/>
  <path class="cls-1" d="M36.58,258.12h-8.48c-.44,0-.8-.36-.8-.8s.36-.8.8-.8h7.69v-49.23c0-2.67-2.35-4.1-4.62-5.49-1.99-1.21-3.87-2.36-3.87-4.33,0-.44.36-.8.8-.8s.8.36.8.8c0,1.07,1.44,1.95,3.11,2.97,2.39,1.46,5.38,3.28,5.38,6.84v50.03c0,.44-.36.8-.8.8Z"/>
  <path class="cls-1" d="M36.58,329.22h-8.48c-.44,0-.8-.36-.8-.8s.36-.8.8-.8h7.69v-49.23c0-2.67-2.35-4.1-4.62-5.49-1.99-1.21-3.87-2.36-3.87-4.32,0-.44.36-.8.8-.8s.8.36.8.8c0,1.07,1.44,1.95,3.1,2.97,2.4,1.46,5.38,3.28,5.38,6.84v50.03c0,.44-.36.8-.8.8Z"/>
  <path class="cls-1" d="M42.41,179.46c-.44,0-.8-.36-.8-.8v-23.59c0-.24.11-.46.29-.61l4.39-3.63h-18.2c-.44,0-.8-.36-.8-.8s.36-.8.8-.8h20.41c.34,0,.63.21.75.53.11.32.02.67-.24.88l-5.81,4.8v23.22c0,.44-.36.8-.8.8Z"/>
  <path class="cls-1" d="M40.95,122.2h-12.85c-.44,0-.8-.36-.8-.8s.36-.8.8-.8h12.85c.44,0,.8.36.8.8s-.36.8-.8.8Z"/>
  <path class="cls-1" d="M106.03,329.22H10.1c-.44,0-.8-.36-.8-.8s.36-.8.8-.8h95.92c.44,0,.8.36.8.8s-.36.8-.8.8Z"/>
  <path class="cls-1" d="M106.03,179.46h-52.22c-.44,0-.8-.36-.8-.8s.36-.8.8-.8h52.22c.44,0,.8.36.8.8s-.36.8-.8.8Z"/>
  <path class="cls-1" d="M106.03,187.01h-50.1c-.44,0-.8-.36-.8-.8s.36-.8.8-.8h50.1c.44,0,.8.36.8.8s-.36.8-.8.8Z"/>
  <path class="cls-1" d="M58.1,329.22c-.44,0-.8-.36-.8-.8v-130.94c0-.44.36-.8.8-.8h47.93c.44,0,.8.36.8.8s-.36.8-.8.8h-47.13v130.15c0,.44-.36.8-.8.8Z"/>
  <path class="cls-1" d="M76.34,261.36c-.44,0-.8-.36-.8-.8v-51.42c0-.44.36-.8.8-.8h29.69c.44,0,.8.36.8.8s-.36.8-.8.8h-28.89v50.63c0,.44-.36.8-.8.8Z"/>
  <path class="cls-1" d="M23.86,150.83c-.44,0-.8-.36-.8-.8v-12.72c0-5,4.56-6.77,4.76-6.84.41-.16.87.05,1.02.46s-.05.87-.46,1.03c-.15.06-3.73,1.47-3.73,5.35v12.72c0,.44-.36.8-.8.8Z"/>
  <path class="cls-1" d="M32.34,150.83c-.44,0-.8-.36-.8-.8v-12.72c0-3.88-3.58-5.29-3.73-5.35-.41-.16-.62-.62-.46-1.03s.61-.62,1.02-.46c.19.07,4.76,1.84,4.76,6.84v12.72c0,.44-.36.8-.8.8Z"/>
  <path class="cls-1" d="M106.03,336.38H28.1c-.44,0-.8-.36-.8-.8s.36-.8.8-.8h77.93c.44,0,.8.36.8.8s-.36.8-.8.8Z"/>
  <path class="cls-1" d="M106.03,343.54h-59.94c-.44,0-.8-.36-.8-.8s.36-.8.8-.8h59.94c.44,0,.8.36.8.8s-.36.8-.8.8Z"/>
  <path class="cls-1" d="M100.2,168.06c-.44,0-.8-.36-.8-.8,0-7.18,6.41-8.71,6.47-8.73.42-.1.85.17.95.6.1.43-.17.85-.59.95-.21.05-5.23,1.29-5.23,7.18,0,.44-.36.8-.8.8Z"/>
  <path class="cls-1" d="M100.2,168.06c-.44,0-.8-.36-.8-.8,0-5.89-5.02-7.13-5.23-7.18-.43-.1-.69-.53-.59-.95s.52-.7.95-.6c.07.01,6.47,1.55,6.47,8.73,0,.44-.36.8-.8.8Z"/>
  <path class="cls-1" d="M88.5,168.06c-.44,0-.8-.36-.8-.8,0-7.18,6.41-8.71,6.47-8.73.43-.1.85.17.95.6s-.17.85-.59.95c-.21.05-5.23,1.29-5.23,7.18,0,.44-.36.8-.8.8Z"/>
  <path class="cls-1" d="M88.5,168.06c-.44,0-.8-.36-.8-.8,0-5.89-5.02-7.13-5.23-7.18-.43-.1-.69-.53-.59-.95.1-.43.52-.7.95-.6.07.01,6.47,1.55,6.47,8.73,0,.44-.36.8-.8.8Z"/>
  <path class="cls-1" d="M76.79,168.06c-.44,0-.8-.36-.8-.8,0-7.18,6.41-8.71,6.47-8.73.43-.1.85.17.95.6.1.43-.17.85-.59.95-.21.05-5.23,1.29-5.23,7.18,0,.44-.36.8-.8.8Z"/>
  <path class="cls-1" d="M76.79,168.06c-.44,0-.8-.36-.8-.8,0-5.89-5.02-7.13-5.23-7.18-.43-.1-.69-.53-.59-.95s.53-.7.95-.6c.07.01,6.47,1.55,6.47,8.73,0,.44-.36.8-.8.8Z"/>
  <path class="cls-1" d="M65.09,168.06c-.44,0-.8-.36-.8-.8,0-7.18,6.41-8.71,6.47-8.73.43-.1.85.17.95.6.1.43-.17.85-.59.95-.21.05-5.23,1.29-5.23,7.18,0,.44-.36.8-.8.8Z"/>
  <path class="cls-1" d="M65.09,168.06c-.44,0-.8-.36-.8-.8,0-5.89-5.02-7.13-5.23-7.18-.43-.1-.69-.53-.59-.95s.53-.7.95-.6c.07.01,6.47,1.55,6.47,8.73,0,.44-.36.8-.8.8Z"/>
  <path class="cls-1" d="M53.39,168.06c-.44,0-.8-.36-.8-.8,0-7.18,6.4-8.71,6.47-8.73.43-.1.85.17.95.6.1.43-.17.85-.59.95-.21.05-5.23,1.29-5.23,7.18,0,.44-.36.8-.8.8Z"/>
  <path class="cls-1" d="M53.39,168.06c-.44,0-.8-.36-.8-.8,0-5.89-5.02-7.13-5.23-7.18-.43-.1-.69-.53-.59-.95s.53-.7.95-.6c.07.01,6.47,1.55,6.47,8.73,0,.44-.36.8-.8.8Z"/>
  <path class="cls-1" d="M272.28,168.06c-.44,0-.8-.36-.8-.8,0-5.89-5.02-7.13-5.23-7.18-.43-.1-.69-.53-.59-.95.1-.43.52-.7.95-.6.07.01,6.47,1.55,6.47,8.73,0,.44-.36.8-.8.8Z"/>
  <path class="cls-1" d="M272.28,168.06c-.44,0-.8-.36-.8-.8,0-7.18,6.41-8.71,6.47-8.73.42-.1.85.17.95.6.1.43-.17.85-.59.95-.21.05-5.23,1.29-5.23,7.18,0,.44-.36.8-.8.8Z"/>
  <path class="cls-1" d="M283.99,168.06c-.44,0-.8-.36-.8-.8,0-5.89-5.02-7.13-5.23-7.18-.43-.1-.69-.53-.59-.95s.53-.7.95-.6c.07.01,6.47,1.55,6.47,8.73,0,.44-.36.8-.8.8Z"/>
  <path class="cls-1" d="M283.99,168.06c-.44,0-.8-.36-.8-.8,0-7.18,6.4-8.71,6.47-8.73.43-.1.85.17.95.6.1.43-.17.85-.59.95-.21.05-5.23,1.29-5.23,7.18,0,.44-.36.8-.8.8Z"/>
  <path class="cls-1" d="M295.69,168.06c-.44,0-.8-.36-.8-.8,0-5.89-5.02-7.13-5.23-7.18-.43-.1-.69-.53-.59-.95s.53-.7.95-.6c.07.01,6.47,1.55,6.47,8.73,0,.44-.36.8-.8.8Z"/>
  <path class="cls-1" d="M295.69,168.06c-.44,0-.8-.36-.8-.8,0-7.18,6.41-8.71,6.47-8.73.43-.1.85.17.95.6.1.43-.17.85-.59.95-.21.05-5.23,1.29-5.23,7.18,0,.44-.36.8-.8.8Z"/>
  <path class="cls-1" d="M307.39,168.06c-.44,0-.8-.36-.8-.8,0-5.89-5.02-7.13-5.23-7.18-.43-.1-.69-.53-.59-.95s.53-.7.95-.6c.07.01,6.47,1.55,6.47,8.73,0,.44-.36.8-.8.8Z"/>
  <path class="cls-1" d="M307.39,168.06c-.44,0-.8-.36-.8-.8,0-7.18,6.4-8.71,6.47-8.73.43-.1.85.17.95.6.1.43-.17.85-.59.95-.21.05-5.23,1.29-5.23,7.18,0,.44-.36.8-.8.8Z"/>
  <path class="cls-1" d="M319.09,168.06c-.44,0-.8-.36-.8-.8,0-5.89-5.02-7.13-5.23-7.18-.43-.1-.69-.53-.59-.95.1-.43.52-.7.95-.6.07.01,6.47,1.55,6.47,8.73,0,.44-.36.8-.8.8Z"/>
  <path class="cls-1" d="M319.09,168.06c-.44,0-.8-.36-.8-.8,0-7.18,6.41-8.71,6.47-8.73.43-.1.85.17.95.6.1.43-.17.85-.59.95-.21.05-5.23,1.29-5.23,7.18,0,.44-.36.8-.8.8Z"/>
  <path class="cls-1" d="M260.62,168.06c-.44,0-.8-.36-.8-.8,0-7.18,6.4-8.71,6.47-8.73.43-.1.85.17.95.6s-.17.85-.59.95c-.21.05-5.23,1.29-5.23,7.18,0,.44-.36.8-.8.8Z"/>
  <path class="cls-1" d="M260.62,168.06c-.44,0-.8-.36-.8-.8,0-5.89-5.02-7.13-5.23-7.18-.43-.1-.69-.53-.59-.95s.52-.7.95-.6c.07.01,6.47,1.55,6.47,8.73,0,.44-.36.8-.8.8Z"/>
  <path class="cls-1" d="M248.92,168.06c-.44,0-.8-.36-.8-.8,0-7.18,6.41-8.71,6.47-8.73.42-.1.85.17.95.6s-.17.85-.59.95c-.21.05-5.23,1.29-5.23,7.18,0,.44-.36.8-.8.8Z"/>
  <path class="cls-1" d="M248.92,168.06c-.44,0-.8-.36-.8-.8,0-5.89-5.02-7.13-5.23-7.18-.43-.1-.69-.53-.59-.95.1-.43.52-.7.95-.6.07.01,6.47,1.55,6.47,8.73,0,.44-.36.8-.8.8Z"/>
  <path class="cls-1" d="M237.22,168.06c-.44,0-.8-.36-.8-.8,0-7.18,6.41-8.71,6.47-8.73.43-.1.85.17.95.6.1.43-.17.85-.59.95-.21.05-5.23,1.29-5.23,7.18,0,.44-.36.8-.8.8Z"/>
  <path class="cls-1" d="M237.22,168.06c-.44,0-.8-.36-.8-.8,0-5.89-5.02-7.13-5.23-7.18-.43-.1-.69-.53-.59-.95.1-.43.52-.7.95-.6.07.01,6.47,1.55,6.47,8.73,0,.44-.36.8-.8.8Z"/>
  <path class="cls-1" d="M225.52,168.06c-.44,0-.8-.36-.8-.8,0-7.18,6.41-8.71,6.47-8.73.43-.1.85.17.95.6.1.43-.17.85-.59.95-.21.05-5.23,1.29-5.23,7.18,0,.44-.36.8-.8.8Z"/>
  <path class="cls-1" d="M225.52,168.06c-.44,0-.8-.36-.8-.8,0-5.89-5.02-7.13-5.23-7.18-.43-.1-.69-.53-.59-.95s.53-.7.95-.6c.07.01,6.47,1.55,6.47,8.73,0,.44-.36.8-.8.8Z"/>
  <path class="cls-1" d="M213.82,168.06c-.44,0-.8-.36-.8-.8,0-7.18,6.41-8.71,6.47-8.73.43-.1.85.17.95.6.1.43-.17.85-.59.95-.21.05-5.23,1.29-5.23,7.18,0,.44-.36.8-.8.8Z"/>
  <path class="cls-1" d="M213.82,168.06c-.44,0-.8-.36-.8-.8,0-5.89-5.02-7.13-5.23-7.18-.43-.1-.69-.53-.59-.95s.53-.7.95-.6c.07.01,6.47,1.55,6.47,8.73,0,.44-.36.8-.8.8Z"/>
  <path class="cls-1" d="M411.12,71.71c-.44,0-.8-.36-.8-.8,0-5.89-5.02-7.13-5.23-7.18-.43-.1-.69-.53-.6-.95.1-.42.52-.69.95-.6.06.01,6.47,1.55,6.47,8.73,0,.44-.36.8-.8.8Z"/>
  <path class="cls-1" d="M411.12,71.71c-.44,0-.8-.36-.8-.8,0-7.18,6.41-8.71,6.47-8.73.43-.1.85.17.95.6.1.43-.17.85-.6.95-.21.05-5.23,1.29-5.23,7.18,0,.44-.36.8-.8.8Z"/>
  <path class="cls-1" d="M422.82,71.71c-.44,0-.8-.36-.8-.8,0-5.92-5.02-7.13-5.23-7.18-.43-.1-.7-.52-.6-.95s.52-.7.95-.6c.06.01,6.47,1.55,6.47,8.73,0,.44-.36.8-.8.8Z"/>
  <path class="cls-1" d="M422.82,71.71c-.44,0-.8-.36-.8-.8,0-7.18,6.41-8.71,6.47-8.73.42-.1.85.17.95.6.1.43-.17.85-.6.95-.21.05-5.23,1.29-5.23,7.18,0,.44-.36.8-.8.8Z"/>
  <path class="cls-1" d="M399.46,71.71c-.44,0-.8-.36-.8-.8,0-7.18,6.41-8.71,6.47-8.73.43-.1.85.17.95.6.1.43-.17.85-.6.95-.21.05-5.23,1.29-5.23,7.18,0,.44-.36.8-.8.8Z"/>
  <path class="cls-1" d="M399.46,71.71c-.44,0-.8-.36-.8-.8,0-5.92-5.02-7.13-5.23-7.18-.43-.1-.7-.52-.6-.95s.52-.7.95-.6c.06.01,6.47,1.55,6.47,8.73,0,.44-.36.8-.8.8Z"/>
  <path class="cls-1" d="M387.76,71.71c-.44,0-.8-.36-.8-.8,0-7.18,6.41-8.71,6.47-8.73.43-.1.85.17.95.6.1.43-.17.85-.6.95-.21.05-5.23,1.29-5.23,7.18,0,.44-.36.8-.8.8Z"/>
  <path class="cls-1" d="M387.76,71.71c-.44,0-.8-.36-.8-.8,0-5.89-5.02-7.13-5.23-7.18-.43-.1-.69-.53-.6-.95.1-.42.53-.69.95-.6.06.01,6.47,1.55,6.47,8.73,0,.44-.36.8-.8.8Z"/>
  <path class="cls-1" d="M376.06,71.71c-.44,0-.8-.36-.8-.8,0-7.18,6.41-8.71,6.47-8.73.43-.1.85.17.95.6.1.43-.17.85-.6.95-.21.05-5.23,1.29-5.23,7.18,0,.44-.36.8-.8.8Z"/>
  <path class="cls-1" d="M376.06,71.71c-.44,0-.8-.36-.8-.8,0-5.92-5.02-7.13-5.23-7.18-.43-.1-.7-.52-.6-.95s.52-.7.95-.6c.06.01,6.47,1.55,6.47,8.73,0,.44-.36.8-.8.8Z"/>
  <path class="cls-1" d="M364.36,71.71c-.44,0-.8-.36-.8-.8,0-7.18,6.41-8.71,6.47-8.73.43-.1.85.17.95.6.1.43-.17.85-.6.95-.21.05-5.23,1.29-5.23,7.18,0,.44-.36.8-.8.8Z"/>
  <path class="cls-1" d="M364.36,71.71c-.44,0-.8-.36-.8-.8,0-5.89-5.02-7.13-5.23-7.18-.43-.1-.69-.53-.6-.95.1-.42.53-.69.95-.6.06.01,6.47,1.55,6.47,8.73,0,.44-.36.8-.8.8Z"/>
  <path class="cls-1" d="M352.66,71.71c-.44,0-.8-.36-.8-.8,0-7.18,6.41-8.71,6.47-8.73.43-.1.85.17.95.6.1.43-.17.85-.6.95-.21.05-5.23,1.29-5.23,7.18,0,.44-.36.8-.8.8Z"/>
  <path class="cls-1" d="M352.66,71.71c-.44,0-.8-.36-.8-.8,0-5.89-5.02-7.13-5.23-7.18-.43-.1-.69-.53-.6-.95.1-.42.52-.69.95-.6.06.01,6.47,1.55,6.47,8.73,0,.44-.36.8-.8.8Z"/>
  <path class="cls-1" d="M256.6,251.56h-28.46c-.44,0-.8-.36-.8-.8s.36-.8.8-.8h28.46c.44,0,.8.36.8.8s-.36.8-.8.8Z"/>
  <path class="cls-1" d="M319.48,251.56h-28.46c-.44,0-.8-.36-.8-.8s.36-.8.8-.8h28.46c.44,0,.8.36.8.8s-.36.8-.8.8Z"/>
  <path class="cls-1" d="M381.16,251.56h-28.46c-.44,0-.8-.36-.8-.8s.36-.8.8-.8h28.46c.44,0,.8.36.8.8s-.36.8-.8.8Z"/>
  <path class="cls-1" d="M441.65,251.56h-28.46c-.44,0-.8-.36-.8-.8s.36-.8.8-.8h28.46c.44,0,.8.36.8.8s-.36.8-.8.8Z"/>
  <path class="cls-1" d="M333.56,179.46c-.44,0-.8-.36-.8-.8v-89.59c0-.44.36-.8.8-.8h95.05c.44,0,.8.36.8.8s-.36.8-.8.8h-94.26v88.8c0,.44-.36.8-.8.8Z"/>
  <path class="cls-1" d="M428.62,77.41h-95.06c-.44,0-.8-.36-.8-.8s.36-.8.8-.8h95.06c.44,0,.8.36.8.8s-.36.8-.8.8Z"/>
  <path class="cls-1" d="M333.56,89.86c-.2,0-.4-.07-.55-.22l-8.65-8.35c-.32-.3-.32-.81-.02-1.12.3-.32.81-.32,1.12-.02l8.65,8.35c.32.3.32.81.02,1.12-.16.16-.36.24-.57.24Z"/>
  <path class="cls-1" d="M405.29,179.46c-.44,0-.8-.36-.8-.8v-75.28c0-.44.36-.8.8-.8h23.32c.44,0,.8.36.8.8s-.36.8-.8.8h-22.53v74.48c0,.44-.36.8-.8.8Z"/>
  <path class="cls-1" d="M428.62,142.88h-15.59c-.44,0-.8-.36-.8-.8s.36-.8.8-.8h15.59c.44,0,.8.36.8.8s-.36.8-.8.8Z"/>
  <path class="cls-1" d="M428.62,159.84h-15.59c-.44,0-.8-.36-.8-.8s.36-.8.8-.8h15.59c.44,0,.8.36.8.8s-.36.8-.8.8Z"/>
  <path class="cls-1" d="M422.78,171.24c-.44,0-.8-.36-.8-.8v-51.36c0-.44.36-.8.8-.8s.8.36.8.8v51.36c0,.44-.36.8-.8.8Z"/>
  <path class="cls-1" d="M369.39,171.24h-15.59c-.44,0-.8-.36-.8-.8v-38.73c0-9.9,15.43-16.09,16.09-16.35.41-.17.87.04,1.03.45.16.41-.04.87-.45,1.03-.15.06-15.08,6.05-15.08,14.87v37.93h14.79c.44,0,.8.36.8.8s-.36.8-.8.8Z"/>
  <path class="cls-1" d="M346.07,179.46c-.44,0-.8-.36-.8-.8v-75.28c0-.44.36-.8.8-.8h23.33c.44,0,.8.36.8.8s-.36.8-.8.8h-22.53v74.48c0,.44-.36.8-.8.8Z"/>
  <path class="cls-1" d="M369.39,142.88h-15.59c-.44,0-.8-.36-.8-.8s.36-.8.8-.8h15.59c.44,0,.8.36.8.8s-.36.8-.8.8Z"/>
  <path class="cls-1" d="M369.39,159.84h-15.59c-.44,0-.8-.36-.8-.8s.36-.8.8-.8h15.59c.44,0,.8.36.8.8s-.36.8-.8.8Z"/>
  <path class="cls-1" d="M363.56,171.24c-.44,0-.8-.36-.8-.8v-51.36c0-.44.36-.8.8-.8s.8.36.8.8v51.36c0,.44-.36.8-.8.8Z"/>
  <path class="cls-1" d="M384.98,171.24h-15.59c-.44,0-.8-.36-.8-.8s.36-.8.8-.8h14.79v-37.93c0-8.82-14.93-14.81-15.08-14.87-.41-.16-.61-.62-.45-1.03.16-.41.62-.61,1.03-.45.66.26,16.09,6.45,16.09,16.35v38.73c0,.44-.36.8-.8.8Z"/>
  <path class="cls-1" d="M392.72,179.46c-.44,0-.8-.36-.8-.8v-74.48h-22.53c-.44,0-.8-.36-.8-.8s.36-.8.8-.8h23.32c.44,0,.8.36.8.8v75.28c0,.44-.36.8-.8.8Z"/>
  <path class="cls-1" d="M287.6,118.75c-3.21,0-5.83-2.61-5.83-5.83s2.61-5.83,5.83-5.83,5.83,2.62,5.83,5.83-2.61,5.83-5.83,5.83ZM287.6,108.69c-2.34,0-4.24,1.9-4.24,4.24s1.9,4.24,4.24,4.24,4.24-1.9,4.24-4.24-1.9-4.24-4.24-4.24Z"/>
  <path class="cls-1" d="M314.29,118.75c-3.21,0-5.83-2.61-5.83-5.83s2.61-5.83,5.83-5.83,5.83,2.62,5.83,5.83-2.61,5.83-5.83,5.83ZM314.29,108.69c-2.34,0-4.24,1.9-4.24,4.24s1.9,4.24,4.24,4.24,4.24-1.9,4.24-4.24-1.9-4.24-4.24-4.24Z"/>
  <path class="cls-1" d="M285.75,150.83c-.44,0-.8-.36-.8-.8v-18.32c0-9.9,15.43-16.09,16.09-16.35.41-.17.87.04,1.03.45.16.41-.04.87-.45,1.03-.15.06-15.08,6.05-15.08,14.87v18.32c0,.44-.36.8-.8.8Z"/>
  <path class="cls-1" d="M278.01,150.83c-.44,0-.8-.36-.8-.8v-46.65c0-.44.36-.8.8-.8h23.33c.44,0,.8.36.8.8s-.36.8-.8.8h-22.53v45.86c0,.44-.36.8-.8.8Z"/>
  <path class="cls-1" d="M316.92,150.83c-.44,0-.8-.36-.8-.8v-18.32c0-8.82-14.93-14.81-15.08-14.87-.41-.16-.61-.62-.45-1.03.16-.41.63-.61,1.03-.45.66.26,16.09,6.45,16.09,16.35v18.32c0,.44-.36.8-.8.8Z"/>
  <path class="cls-1" d="M324.66,150.83c-.44,0-.8-.36-.8-.8v-45.86h-22.53c-.44,0-.8-.36-.8-.8s.36-.8.8-.8h23.32c.44,0,.8.36.8.8v46.65c0,.44-.36.8-.8.8Z"/>
  <path class="cls-1" d="M232.58,118.75c-3.21,0-5.83-2.61-5.83-5.83s2.61-5.83,5.83-5.83,5.83,2.62,5.83,5.83-2.61,5.83-5.83,5.83ZM232.58,108.69c-2.34,0-4.24,1.9-4.24,4.24s1.9,4.24,4.24,4.24,4.24-1.9,4.24-4.24-1.9-4.24-4.24-4.24Z"/>
  <path class="cls-1" d="M259.28,118.75c-3.21,0-5.83-2.61-5.83-5.83s2.61-5.83,5.83-5.83,5.83,2.62,5.83,5.83-2.61,5.83-5.83,5.83ZM259.28,108.69c-2.34,0-4.24,1.9-4.24,4.24s1.9,4.24,4.24,4.24,4.24-1.9,4.24-4.24-1.9-4.24-4.24-4.24Z"/>
  <path class="cls-1" d="M230.73,150.83c-.44,0-.8-.36-.8-.8v-18.32c0-9.9,15.43-16.09,16.09-16.35.41-.17.87.04,1.03.45.16.41-.04.87-.45,1.03-.15.06-15.08,6.05-15.08,14.87v18.32c0,.44-.36.8-.8.8Z"/>
  <path class="cls-1" d="M222.99,150.83c-.44,0-.8-.36-.8-.8v-46.65c0-.44.36-.8.8-.8h23.32c.44,0,.8.36.8.8s-.36.8-.8.8h-22.53v45.86c0,.44-.36.8-.8.8Z"/>
  <path class="cls-1" d="M261.9,150.83c-.44,0-.8-.36-.8-.8v-18.32c0-8.82-14.93-14.81-15.08-14.87-.41-.16-.61-.62-.45-1.03.16-.41.62-.61,1.03-.45.66.26,16.09,6.45,16.09,16.35v18.32c0,.44-.36.8-.8.8Z"/>
  <path class="cls-1" d="M269.64,150.83c-.44,0-.8-.36-.8-.8v-45.86h-22.53c-.44,0-.8-.36-.8-.8s.36-.8.8-.8h23.33c.44,0,.8.36.8.8v46.65c0,.44-.36.8-.8.8Z"/>
  <path class="cls-1" d="M384.98,142.88h-15.59c-.44,0-.8-.36-.8-.8s.36-.8.8-.8h15.59c.44,0,.8.36.8.8s-.36.8-.8.8Z"/>
  <path class="cls-1" d="M384.98,159.84h-15.59c-.44,0-.8-.36-.8-.8s.36-.8.8-.8h15.59c.44,0,.8.36.8.8s-.36.8-.8.8Z"/>
  <path class="cls-1" d="M375.22,171.24c-.44,0-.8-.36-.8-.8v-51.36c0-.44.36-.8.8-.8s.8.36.8.8v51.36c0,.44-.36.8-.8.8Z"/>
  <path class="cls-1" d="M346.07,58.06h-12.5c-.44,0-.8-.36-.8-.8s.36-.8.8-.8h12.5c.44,0,.8.36.8.8s-.36.8-.8.8Z"/>
  <path class="cls-1" d="M346.07,38.44h-12.5c-.44,0-.8-.36-.8-.8s.36-.8.8-.8h12.5c.44,0,.8.36.8.8s-.36.8-.8.8Z"/>
  <path class="cls-1" d="M428.62,49.44c-.44,0-.8-.36-.8-.8v-27.24c0-.44.36-.8.8-.8s.8.36.8.8v27.24c0,.44-.36.8-.8.8Z"/>
  <path class="cls-1" d="M333.56,150.83h-129.2c-.44,0-.8-.36-.8-.8s.36-.8.8-.8h129.2c.44,0,.8.36.8.8s-.36.8-.8.8Z"/>
  <path class="cls-1" d="M215.66,58.06h-31.7c-.44,0-.8-.36-.8-.8s.36-.8.8-.8h31.7c.44,0,.8.36.8.8s-.36.8-.8.8Z"/>
  <path class="cls-1" d="M214.97,150.83c-.44,0-.8-.36-.8-.8v-62.82c0-.18.06-.36.17-.5l4.16-5.2h-34.56c-.44,0-.8-.36-.8-.8s.36-.8.8-.8h36.21c.31,0,.58.18.72.45.13.28.09.6-.1.84l-5.02,6.28v62.54c0,.44-.36.8-.8.8Z"/>
  <path class="cls-1" d="M207.01,64.55h-23.05c-.44,0-.8-.36-.8-.8s.36-.8.8-.8h23.05c.44,0,.8.36.8.8s-.36.8-.8.8Z"/>
  <path class="cls-1" d="M164.78,85.69c-.44,0-.8-.36-.8-.8v-4.11c0-.44.36-.8.8-.8s.8.36.8.8v4.11c0,.44-.36.8-.8.8Z"/>
  <path class="cls-1" d="M174.37,85.69c-.44,0-.8-.36-.8-.8v-4.11c0-.44.36-.8.8-.8s.8.36.8.8v4.11c0,.44-.36.8-.8.8Z"/>
  <path class="cls-1" d="M183.96,58.06h-31.7c-.44,0-.8-.36-.8-.8s.36-.8.8-.8h31.7c.44,0,.8.36.8.8s-.36.8-.8.8Z"/>
  <path class="cls-1" d="M183.96,81.51h-31c-.44,0-.8-.36-.8-.8s.36-.8.8-.8h31c.44,0,.8.36.8.8s-.36.8-.8.8Z"/>
  <path class="cls-1" d="M183.96,64.55h-23.05c-.44,0-.8-.36-.8-.8s.36-.8.8-.8h23.05c.44,0,.8.36.8.8s-.36.8-.8.8Z"/>
  <path class="cls-1" d="M207.01,92.38h-23.05c-.44,0-.8-.36-.8-.8s.36-.8.8-.8h23.05c.44,0,.8.36.8.8s-.36.8-.8.8Z"/>
  <path class="cls-1" d="M325.44,92.38h-104.04c-.44,0-.8-.36-.8-.8s.36-.8.8-.8h104.04c.44,0,.8.36.8.8s-.36.8-.8.8Z"/>
  <path class="cls-1" d="M183.96,92.38h-23.05c-.44,0-.8-.36-.8-.8s.36-.8.8-.8h23.05c.44,0,.8.36.8.8s-.36.8-.8.8Z"/>
  <path class="cls-1" d="M194.52,58.06c-.44,0-.8-.36-.8-.8V19.43c0-.18.06-.36.17-.5l3.48-4.33h-13.42c-.44,0-.8-.36-.8-.8s.36-.8.8-.8h15.08c.31,0,.58.18.72.45.13.27.09.6-.1.84l-4.34,5.41v37.55c0,.44-.36.8-.8.8Z"/>
  <path class="cls-1" d="M194.52,26.53h-10.57c-.44,0-.8-.36-.8-.8s.36-.8.8-.8h10.57c.44,0,.8.36.8.8s-.36.8-.8.8Z"/>
  <path class="cls-1" d="M194.52,42.26c-.38,0-.72-.28-.78-.67-.95-5.91-5.27-7.66-8.12-8.82-1.07-.43-1.84-.75-2.26-1.23-.29-.33-.26-.83.08-1.12.33-.29.83-.26,1.12.07.17.2.96.52,1.66.8,2.79,1.14,8,3.26,9.09,10.05.07.43-.23.84-.66.91-.04,0-.09.01-.13.01Z"/>
  <path class="cls-1" d="M194.52,14.6c-.44,0-.8-.36-.8-.8V3.18h-9.77c-.44,0-.8-.36-.8-.8s.36-.8.8-.8h10.57c.44,0,.8.36.8.8v11.42c0,.44-.36.8-.8.8Z"/>
  <path class="cls-1" d="M173.39,58.06c-.44,0-.8-.36-.8-.8V19.71l-4.34-5.41c-.19-.24-.23-.57-.1-.84.13-.28.41-.45.72-.45h15.08c.44,0,.8.36.8.8s-.36.8-.8.8h-13.42l3.48,4.33c.11.14.17.32.17.5v37.83c0,.44-.36.8-.8.8Z"/>
  <path class="cls-1" d="M183.96,26.53h-10.57c-.44,0-.8-.36-.8-.8s.36-.8.8-.8h10.57c.44,0,.8.36.8.8s-.36.8-.8.8Z"/>
  <path class="cls-1" d="M173.39,42.26s-.08,0-.13-.01c-.43-.07-.73-.48-.66-.91,1.09-6.79,6.3-8.91,9.09-10.05.7-.28,1.49-.61,1.66-.8.29-.33.79-.36,1.12-.07.33.29.36.79.08,1.12-.42.48-1.19.8-2.26,1.23-2.85,1.16-7.17,2.92-8.12,8.82-.06.39-.4.67-.78.67Z"/>
  <path class="cls-1" d="M215.66,14.6h-10.57c-.44,0-.8-.36-.8-.8s.36-.8.8-.8h10.57c.44,0,.8.36.8.8s-.36.8-.8.8Z"/>
  <path class="cls-1" d="M215.66,26.53h-10.57c-.44,0-.8-.36-.8-.8s.36-.8.8-.8h10.57c.44,0,.8.36.8.8s-.36.8-.8.8Z"/>
  <path class="cls-1" d="M215.66,42.26c-.38,0-.72-.28-.78-.67-.95-5.91-5.27-7.66-8.12-8.82-1.07-.43-1.84-.75-2.26-1.23-.29-.33-.26-.83.08-1.12.33-.29.83-.26,1.12.07.17.2.96.52,1.66.8,2.79,1.14,8,3.26,9.09,10.05.07.43-.23.84-.66.91-.04,0-.09.01-.13.01Z"/>
  <path class="cls-1" d="M215.66,3.18h-21.13c-.44,0-.8-.36-.8-.8s.36-.8.8-.8h21.13c.44,0,.8.36.8.8s-.36.8-.8.8Z"/>
  <path class="cls-1" d="M205.09,26.53h-10.57c-.44,0-.8-.36-.8-.8s.36-.8.8-.8h10.57c.44,0,.8.36.8.8s-.36.8-.8.8Z"/>
  <path class="cls-1" d="M194.52,42.26s-.08,0-.13-.01c-.43-.07-.73-.48-.66-.91,1.09-6.79,6.29-8.91,9.09-10.05.7-.28,1.49-.61,1.66-.8.29-.33.79-.36,1.12-.07.33.29.36.79.08,1.12-.42.48-1.19.8-2.26,1.23-2.85,1.16-7.17,2.92-8.12,8.82-.06.39-.4.67-.78.67Z"/>
  <path class="cls-1" d="M173.39,14.6c-.44,0-.8-.36-.8-.8V2.39c0-.44.36-.8.8-.8h10.57c.44,0,.8.36.8.8s-.36.8-.8.8h-9.77v10.62c0,.44-.36.8-.8.8Z"/>
  <path class="cls-1" d="M162.83,14.6h-10.55c-.44,0-.8-.36-.8-.8s.36-.8.8-.8h10.55c.44,0,.8.36.8.8s-.36.8-.8.8Z"/>
  <path class="cls-1" d="M162.83,26.53h-10.57c-.44,0-.8-.36-.8-.8s.36-.8.8-.8h10.57c.44,0,.8.36.8.8s-.36.8-.8.8Z"/>
  <path class="cls-1" d="M152.26,42.26s-.08,0-.13-.01c-.43-.07-.73-.48-.66-.91,1.09-6.79,6.3-8.91,9.09-10.05.7-.28,1.49-.61,1.66-.8.29-.33.79-.36,1.12-.07.33.29.36.79.08,1.12-.42.48-1.19.8-2.26,1.23-2.85,1.16-7.17,2.92-8.12,8.82-.06.39-.4.67-.78.67Z"/>
  <path class="cls-1" d="M173.39,26.53h-10.57c-.44,0-.8-.36-.8-.8s.36-.8.8-.8h10.57c.44,0,.8.36.8.8s-.36.8-.8.8Z"/>
  <path class="cls-1" d="M173.39,42.26c-.38,0-.72-.28-.78-.67-.95-5.91-5.27-7.66-8.12-8.82-1.07-.43-1.84-.75-2.26-1.23-.29-.33-.26-.83.08-1.12.33-.29.83-.26,1.12.07.17.2.96.52,1.66.8,2.79,1.14,8,3.26,9.09,10.05.07.43-.23.84-.66.91-.04,0-.09.01-.13.01Z"/>
  <path class="cls-1" d="M647.56,179.46h-218.95c-.44,0-.8-.36-.8-.8s.36-.8.8-.8h218.95c.44,0,.8.36.8.8s-.36.8-.8.8Z"/>
  <path class="cls-1" d="M644.51,187.01h-215.9c-.44,0-.8-.36-.8-.8s.36-.8.8-.8h215.9c.44,0,.8.36.8.8s-.36.8-.8.8Z"/>
  <path class="cls-1" d="M459.46,251.56h-7.29c-.44,0-.8-.36-.8-.8v-11.93c0-13.61-22.82-22.76-23.05-22.85-.41-.16-.61-.62-.45-1.03.16-.41.63-.61,1.03-.45.98.39,24.06,9.64,24.06,24.33v11.13h6.5c.44,0,.8.36.8.8s-.36.8-.8.8Z"/>
  <path class="cls-1" d="M444.2,171.24h-15.59c-.44,0-.8-.36-.8-.8s.36-.8.8-.8h14.79v-37.93c0-8.82-14.93-14.81-15.08-14.87-.41-.16-.61-.62-.45-1.03.16-.41.63-.61,1.03-.45.66.26,16.09,6.45,16.09,16.35v38.73c0,.44-.36.8-.8.8Z"/>
  <path class="cls-1" d="M451.05,329.22h-22.43c-.44,0-.8-.36-.8-.8s.36-.8.8-.8h21.64v-6.1c0-.44.36-.8.8-.8h2.85v-63.72l-2.46-5.95c-.17-.41.02-.87.43-1.04.41-.17.87.02,1.04.43l2.52,6.1c.04.1.06.2.06.3v64.68c0,.44-.36.8-.8.8h-2.85v6.1c0,.44-.36.8-.8.8Z"/>
  <path class="cls-1" d="M456.93,230.88c-.44,0-.8-.36-.8-.8v-26.77h-27.52c-.44,0-.8-.36-.8-.8s.36-.8.8-.8h28.32c.44,0,.8.36.8.8v27.57c0,.44-.36.8-.8.8Z"/>
  <path class="cls-1" d="M466.75,251.56h-7.29c-.44,0-.8-.36-.8-.8s.36-.8.8-.8h6.49v-11.13c0-14.69,23.07-23.94,24.06-24.33.41-.16.87.04,1.03.45.16.41-.04.87-.45,1.03-.23.09-23.05,9.25-23.05,22.85v11.93c0,.44-.36.8-.8.8Z"/>
  <path class="cls-1" d="M490.3,329.22h-22.43c-.44,0-.8-.36-.8-.8v-6.1h-2.85c-.44,0-.8-.36-.8-.8v-64.68c0-.1.02-.21.06-.3l2.52-6.1c.17-.41.63-.6,1.04-.43.41.17.6.63.43,1.04l-2.46,5.95v63.72h2.85c.44,0,.8.36.8.8v6.1h21.64c.44,0,.8.36.8.8s-.36.8-.8.8Z"/>
  <path class="cls-1" d="M461.98,230.88c-.44,0-.8-.36-.8-.8v-27.57c0-.44.36-.8.8-.8h28.32c.44,0,.8.36.8.8s-.36.8-.8.8h-27.52v26.77c0,.44-.36.8-.8.8Z"/>
  <path class="cls-1" d="M521.14,251.56h-7.29c-.44,0-.8-.36-.8-.8v-11.93c0-13.61-22.82-22.76-23.05-22.85-.41-.16-.61-.62-.45-1.03.16-.41.62-.61,1.03-.45.98.39,24.06,9.64,24.06,24.33v11.13h6.5c.44,0,.8.36.8.8s-.36.8-.8.8Z"/>
  <path class="cls-1" d="M512.73,329.22h-22.43c-.44,0-.8-.36-.8-.8s.36-.8.8-.8h21.64v-6.1c0-.44.36-.8.8-.8h2.85v-63.72l-2.46-5.95c-.17-.41.02-.87.43-1.04.41-.17.87.02,1.04.43l2.52,6.1c.04.1.06.2.06.3v64.68c0,.44-.36.8-.8.8h-2.85v6.1c0,.44-.36.8-.8.8Z"/>
  <path class="cls-1" d="M518.62,230.88c-.44,0-.8-.36-.8-.8v-26.77h-27.52c-.44,0-.8-.36-.8-.8s.36-.8.8-.8h28.32c.44,0,.8.36.8.8v27.57c0,.44-.36.8-.8.8Z"/>
  <path class="cls-1" d="M528.43,251.56h-7.29c-.44,0-.8-.36-.8-.8s.36-.8.8-.8h6.49v-11.13c0-14.69,23.07-23.94,24.06-24.33.41-.16.87.04,1.03.45.16.41-.04.87-.45,1.03-.23.09-23.05,9.25-23.05,22.85v11.93c0,.44-.36.8-.8.8Z"/>
  <path class="cls-1" d="M551.99,329.22h-22.43c-.44,0-.8-.36-.8-.8v-6.1h-2.85c-.44,0-.8-.36-.8-.8v-64.68c0-.1.02-.21.06-.3l2.52-6.1c.17-.41.63-.6,1.04-.43.41.17.6.63.43,1.04l-2.46,5.95v63.72h2.85c.44,0,.8.36.8.8v6.1h21.64c.44,0,.8.36.8.8s-.36.8-.8.8Z"/>
  <path class="cls-1" d="M523.67,230.88c-.44,0-.8-.36-.8-.8v-27.57c0-.44.36-.8.8-.8h28.32c.44,0,.8.36.8.8s-.36.8-.8.8h-27.52v26.77c0,.44-.36.8-.8.8Z"/>
  <path class="cls-1" d="M582.83,251.56h-7.29c-.44,0-.8-.36-.8-.8v-11.93c0-13.61-22.82-22.76-23.05-22.85-.41-.16-.61-.62-.45-1.03.16-.41.62-.61,1.03-.45.98.39,24.06,9.64,24.06,24.33v11.13h6.49c.44,0,.8.36.8.8s-.36.8-.8.8Z"/>
  <path class="cls-1" d="M574.42,329.22h-22.43c-.44,0-.8-.36-.8-.8s.36-.8.8-.8h21.64v-6.1c0-.44.36-.8.8-.8h2.85v-63.72l-2.46-5.95c-.17-.41.02-.87.43-1.04.41-.17.87.02,1.04.43l2.52,6.1c.04.1.06.2.06.3v64.68c0,.44-.36.8-.8.8h-2.85v6.1c0,.44-.36.8-.8.8Z"/>
  <path class="cls-1" d="M580.31,230.88c-.44,0-.8-.36-.8-.8v-26.77h-27.52c-.44,0-.8-.36-.8-.8s.36-.8.8-.8h28.32c.44,0,.8.36.8.8v27.57c0,.44-.36.8-.8.8Z"/>
  <path class="cls-1" d="M590.12,251.56h-7.29c-.44,0-.8-.36-.8-.8s.36-.8.8-.8h6.5v-11.13c0-14.69,23.07-23.94,24.06-24.33.41-.16.87.04,1.03.45.16.41-.04.87-.45,1.03-.23.09-23.05,9.25-23.05,22.85v11.93c0,.44-.36.8-.8.8Z"/>
  <path class="cls-1" d="M613.67,329.22h-22.43c-.44,0-.8-.36-.8-.8v-6.1h-2.85c-.44,0-.8-.36-.8-.8v-64.68c0-.1.02-.21.06-.3l2.52-6.1c.17-.41.64-.6,1.04-.43.41.17.6.63.43,1.04l-2.46,5.95v63.72h2.85c.44,0,.8.36.8.8v6.1h21.64c.44,0,.8.36.8.8s-.36.8-.8.8Z"/>
  <path class="cls-1" d="M585.35,230.88c-.44,0-.8-.36-.8-.8v-27.57c0-.44.36-.8.8-.8h28.32c.44,0,.8.36.8.8s-.36.8-.8.8h-27.52v26.77c0,.44-.36.8-.8.8Z"/>
  <path class="cls-1" d="M644.51,251.56h-7.29c-.44,0-.8-.36-.8-.8v-11.93c0-13.61-22.82-22.76-23.05-22.85-.41-.16-.61-.62-.45-1.03s.62-.61,1.03-.45c.98.39,24.06,9.64,24.06,24.33v11.13h6.49c.44,0,.8.36.8.8s-.36.8-.8.8Z"/>
  <path class="cls-1" d="M636.1,329.22h-22.43c-.44,0-.8-.36-.8-.8s.36-.8.8-.8h21.64v-6.1c0-.44.36-.8.8-.8h2.85v-63.72l-2.46-5.95c-.17-.41.02-.87.43-1.04.41-.17.87.02,1.04.43l2.52,6.1c.04.1.06.2.06.3v64.68c0,.44-.36.8-.8.8h-2.85v6.1c0,.44-.36.8-.8.8Z"/>
  <path class="cls-1" d="M641.99,230.88c-.44,0-.8-.36-.8-.8v-26.77h-27.52c-.44,0-.8-.36-.8-.8s.36-.8.8-.8h28.32c.44,0,.8.36.8.8v27.57c0,.44-.36.8-.8.8Z"/>
  <path class="cls-1" d="M632.18,218.16c-3.21,0-5.83-2.62-5.83-5.83s2.61-5.83,5.83-5.83,5.83,2.62,5.83,5.83-2.61,5.83-5.83,5.83ZM632.18,208.09c-2.34,0-4.24,1.9-4.24,4.24s1.9,4.24,4.24,4.24,4.24-1.9,4.24-4.24-1.9-4.24-4.24-4.24Z"/>
  <path class="cls-1" d="M734.51,227.97c-3.21,0-5.83-2.62-5.83-5.83s2.61-5.83,5.83-5.83,5.83,2.62,5.83,5.83-2.61,5.83-5.83,5.83ZM734.51,217.9c-2.34,0-4.24,1.9-4.24,4.24s1.9,4.24,4.24,4.24,4.24-1.9,4.24-4.24-1.9-4.24-4.24-4.24Z"/>
  <path class="cls-1" d="M595.6,218.16c-3.21,0-5.83-2.62-5.83-5.83s2.61-5.83,5.83-5.83,5.83,2.62,5.83,5.83-2.61,5.83-5.83,5.83ZM595.6,208.09c-2.34,0-4.24,1.9-4.24,4.24s1.9,4.24,4.24,4.24,4.24-1.9,4.24-4.24-1.9-4.24-4.24-4.24Z"/>
  <path class="cls-1" d="M570.28,218.16c-3.21,0-5.83-2.62-5.83-5.83s2.61-5.83,5.83-5.83,5.83,2.62,5.83,5.83-2.61,5.83-5.83,5.83ZM570.28,208.09c-2.34,0-4.24,1.9-4.24,4.24s1.9,4.24,4.24,4.24,4.24-1.9,4.24-4.24-1.9-4.24-4.24-4.24Z"/>
  <path class="cls-1" d="M533.7,218.16c-3.21,0-5.83-2.62-5.83-5.83s2.61-5.83,5.83-5.83,5.83,2.62,5.83,5.83-2.61,5.83-5.83,5.83ZM533.7,208.09c-2.34,0-4.24,1.9-4.24,4.24s1.9,4.24,4.24,4.24,4.24-1.9,4.24-4.24-1.9-4.24-4.24-4.24Z"/>
  <path class="cls-1" d="M508.59,218.16c-3.21,0-5.83-2.62-5.83-5.83s2.61-5.83,5.83-5.83,5.83,2.62,5.83,5.83-2.61,5.83-5.83,5.83ZM508.59,208.09c-2.34,0-4.24,1.9-4.24,4.24s1.9,4.24,4.24,4.24,4.24-1.9,4.24-4.24-1.9-4.24-4.24-4.24Z"/>
  <path class="cls-1" d="M472.01,218.16c-3.21,0-5.83-2.62-5.83-5.83s2.61-5.83,5.83-5.83,5.83,2.62,5.83,5.83-2.61,5.83-5.83,5.83ZM472.01,208.09c-2.34,0-4.24,1.9-4.24,4.24s1.9,4.24,4.24,4.24,4.24-1.9,4.24-4.24-1.9-4.24-4.24-4.24Z"/>
  <path class="cls-1" d="M446.91,218.16c-3.21,0-5.83-2.62-5.83-5.83s2.61-5.83,5.83-5.83,5.83,2.62,5.83,5.83-2.61,5.83-5.83,5.83ZM446.91,208.09c-2.34,0-4.24,1.9-4.24,4.24s1.9,4.24,4.24,4.24,4.24-1.9,4.24-4.24-1.9-4.24-4.24-4.24Z"/>
  <path class="cls-1" d="M442.78,118.75c-3.21,0-5.83-2.61-5.83-5.83s2.61-5.83,5.83-5.83,5.83,2.62,5.83,5.83-2.61,5.83-5.83,5.83ZM442.78,108.69c-2.34,0-4.24,1.9-4.24,4.24s1.9,4.24,4.24,4.24,4.24-1.9,4.24-4.24-1.9-4.24-4.24-4.24Z"/>
  <path class="cls-1" d="M501.58,118.75c-3.21,0-5.83-2.61-5.83-5.83s2.61-5.83,5.83-5.83,5.83,2.62,5.83,5.83-2.61,5.83-5.83,5.83ZM501.58,108.69c-2.34,0-4.24,1.9-4.24,4.24s1.9,4.24,4.24,4.24,4.24-1.9,4.24-4.24-1.9-4.24-4.24-4.24Z"/>
  <path class="cls-1" d="M474.88,118.75c-3.21,0-5.83-2.61-5.83-5.83s2.61-5.83,5.83-5.83,5.83,2.62,5.83,5.83-2.61,5.83-5.83,5.83ZM474.88,108.69c-2.34,0-4.24,1.9-4.24,4.24s1.9,4.24,4.24,4.24,4.24-1.9,4.24-4.24-1.9-4.24-4.24-4.24Z"/>
  <path class="cls-1" d="M434.45,191.12c-.44,0-.8-.36-.8-.8v-4.11c0-.44.36-.8.8-.8s.8.36.8.8v4.11c0,.44-.36.8-.8.8Z"/>
  <path class="cls-1" d="M444.04,191.12c-.44,0-.8-.36-.8-.8v-4.11c0-.44.36-.8.8-.8s.8.36.8.8v4.11c0,.44-.36.8-.8.8Z"/>
  <path class="cls-1" d="M453.63,191.12c-.44,0-.8-.36-.8-.8v-4.11c0-.44.36-.8.8-.8s.8.36.8.8v4.11c0,.44-.36.8-.8.8Z"/>
  <path class="cls-1" d="M463.22,191.12c-.44,0-.8-.36-.8-.8v-4.11c0-.44.36-.8.8-.8s.8.36.8.8v4.11c0,.44-.36.8-.8.8Z"/>
  <path class="cls-1" d="M472.81,191.12c-.44,0-.8-.36-.8-.8v-4.11c0-.44.36-.8.8-.8s.8.36.8.8v4.11c0,.44-.36.8-.8.8Z"/>
  <path class="cls-1" d="M482.4,191.12c-.44,0-.8-.36-.8-.8v-4.11c0-.44.36-.8.8-.8s.8.36.8.8v4.11c0,.44-.36.8-.8.8Z"/>
  <path class="cls-1" d="M491.99,191.12c-.44,0-.8-.36-.8-.8v-4.11c0-.44.36-.8.8-.8s.8.36.8.8v4.11c0,.44-.36.8-.8.8Z"/>
  <path class="cls-1" d="M501.58,191.12c-.44,0-.8-.36-.8-.8v-4.11c0-.44.36-.8.8-.8s.8.36.8.8v4.11c0,.44-.36.8-.8.8Z"/>
  <path class="cls-1" d="M511.17,191.12c-.44,0-.8-.36-.8-.8v-4.11c0-.44.36-.8.8-.8s.8.36.8.8v4.11c0,.44-.36.8-.8.8Z"/>
  <path class="cls-1" d="M520.76,191.12c-.44,0-.8-.36-.8-.8v-4.11c0-.44.36-.8.8-.8s.8.36.8.8v4.11c0,.44-.36.8-.8.8Z"/>
  <path class="cls-1" d="M434.45,81.51c-.44,0-.8-.36-.8-.8v-4.11c0-.44.36-.8.8-.8s.8.36.8.8v4.11c0,.44-.36.8-.8.8Z"/>
  <path class="cls-1" d="M444.04,81.51c-.44,0-.8-.36-.8-.8v-4.11c0-.44.36-.8.8-.8s.8.36.8.8v4.11c0,.44-.36.8-.8.8Z"/>
  <path class="cls-1" d="M453.63,81.51c-.44,0-.8-.36-.8-.8v-4.11c0-.44.36-.8.8-.8s.8.36.8.8v4.11c0,.44-.36.8-.8.8Z"/>
  <path class="cls-1" d="M463.22,81.51c-.44,0-.8-.36-.8-.8v-4.11c0-.44.36-.8.8-.8s.8.36.8.8v4.11c0,.44-.36.8-.8.8Z"/>
  <path class="cls-1" d="M472.81,81.51c-.44,0-.8-.36-.8-.8v-4.11c0-.44.36-.8.8-.8s.8.36.8.8v4.11c0,.44-.36.8-.8.8Z"/>
  <path class="cls-1" d="M482.4,81.51c-.44,0-.8-.36-.8-.8v-4.11c0-.44.36-.8.8-.8s.8.36.8.8v4.11c0,.44-.36.8-.8.8Z"/>
  <path class="cls-1" d="M491.99,81.51c-.44,0-.8-.36-.8-.8v-4.11c0-.44.36-.8.8-.8s.8.36.8.8v4.11c0,.44-.36.8-.8.8Z"/>
  <path class="cls-1" d="M501.58,81.51c-.44,0-.8-.36-.8-.8v-4.11c0-.44.36-.8.8-.8s.8.36.8.8v4.11c0,.44-.36.8-.8.8Z"/>
  <path class="cls-1" d="M511.17,81.51c-.44,0-.8-.36-.8-.8v-4.11c0-.44.36-.8.8-.8s.8.36.8.8v4.11c0,.44-.36.8-.8.8Z"/>
  <path class="cls-1" d="M520.76,81.51c-.44,0-.8-.36-.8-.8v-4.11c0-.44.36-.8.8-.8s.8.36.8.8v4.11c0,.44-.36.8-.8.8Z"/>
  <path class="cls-1" d="M530.35,191.12c-.44,0-.8-.36-.8-.8v-4.11c0-.44.36-.8.8-.8s.8.36.8.8v4.11c0,.44-.36.8-.8.8Z"/>
  <path class="cls-1" d="M539.94,191.12c-.44,0-.8-.36-.8-.8v-4.11c0-.44.36-.8.8-.8s.8.36.8.8v4.11c0,.44-.36.8-.8.8Z"/>
  <path class="cls-1" d="M549.53,191.12c-.44,0-.8-.36-.8-.8v-4.11c0-.44.36-.8.8-.8s.8.36.8.8v4.11c0,.44-.36.8-.8.8Z"/>
  <path class="cls-1" d="M559.12,191.12c-.44,0-.8-.36-.8-.8v-4.11c0-.44.36-.8.8-.8s.8.36.8.8v4.11c0,.44-.36.8-.8.8Z"/>
  <path class="cls-1" d="M568.7,191.12c-.44,0-.8-.36-.8-.8v-4.11c0-.44.36-.8.8-.8s.8.36.8.8v4.11c0,.44-.36.8-.8.8Z"/>
  <path class="cls-1" d="M578.29,191.12c-.44,0-.8-.36-.8-.8v-4.11c0-.44.36-.8.8-.8s.8.36.8.8v4.11c0,.44-.36.8-.8.8Z"/>
  <path class="cls-1" d="M587.88,191.12c-.44,0-.8-.36-.8-.8v-4.11c0-.44.36-.8.8-.8s.8.36.8.8v4.11c0,.44-.36.8-.8.8Z"/>
  <path class="cls-1" d="M597.47,191.12c-.44,0-.8-.36-.8-.8v-4.11c0-.44.36-.8.8-.8s.8.36.8.8v4.11c0,.44-.36.8-.8.8Z"/>
  <path class="cls-1" d="M607.06,191.12c-.44,0-.8-.36-.8-.8v-4.11c0-.44.36-.8.8-.8s.8.36.8.8v4.11c0,.44-.36.8-.8.8Z"/>
  <path class="cls-1" d="M616.65,191.12c-.44,0-.8-.36-.8-.8v-4.11c0-.44.36-.8.8-.8s.8.36.8.8v4.11c0,.44-.36.8-.8.8Z"/>
  <path class="cls-1" d="M626.24,191.12c-.44,0-.8-.36-.8-.8v-4.11c0-.44.36-.8.8-.8s.8.36.8.8v4.11c0,.44-.36.8-.8.8Z"/>
  <path class="cls-1" d="M635.83,191.12c-.44,0-.8-.36-.8-.8v-4.11c0-.44.36-.8.8-.8s.8.36.8.8v4.11c0,.44-.36.8-.8.8Z"/>
  <path class="cls-1" d="M539.94,85.69c-.44,0-.8-.36-.8-.8v-4.11c0-.44.36-.8.8-.8s.8.36.8.8v4.11c0,.44-.36.8-.8.8Z"/>
  <path class="cls-1" d="M549.53,85.69c-.44,0-.8-.36-.8-.8v-4.11c0-.44.36-.8.8-.8s.8.36.8.8v4.11c0,.44-.36.8-.8.8Z"/>
  <path class="cls-1" d="M559.12,85.69c-.44,0-.8-.36-.8-.8v-4.11c0-.44.36-.8.8-.8s.8.36.8.8v4.11c0,.44-.36.8-.8.8Z"/>
  <path class="cls-1" d="M568.7,85.69c-.44,0-.8-.36-.8-.8v-4.11c0-.44.36-.8.8-.8s.8.36.8.8v4.11c0,.44-.36.8-.8.8Z"/>
  <path class="cls-1" d="M578.29,85.69c-.44,0-.8-.36-.8-.8v-4.11c0-.44.36-.8.8-.8s.8.36.8.8v4.11c0,.44-.36.8-.8.8Z"/>
  <path class="cls-1" d="M587.88,85.69c-.44,0-.8-.36-.8-.8v-4.11c0-.44.36-.8.8-.8s.8.36.8.8v4.11c0,.44-.36.8-.8.8Z"/>
  <path class="cls-1" d="M597.47,85.69c-.44,0-.8-.36-.8-.8v-4.11c0-.44.36-.8.8-.8s.8.36.8.8v4.11c0,.44-.36.8-.8.8Z"/>
  <path class="cls-1" d="M607.06,85.69c-.44,0-.8-.36-.8-.8v-4.11c0-.44.36-.8.8-.8s.8.36.8.8v4.11c0,.44-.36.8-.8.8Z"/>
  <path class="cls-1" d="M616.65,85.69c-.44,0-.8-.36-.8-.8v-4.11c0-.44.36-.8.8-.8s.8.36.8.8v4.11c0,.44-.36.8-.8.8Z"/>
  <path class="cls-1" d="M626.24,85.69c-.44,0-.8-.36-.8-.8v-4.11c0-.44.36-.8.8-.8s.8.36.8.8v4.11c0,.44-.36.8-.8.8Z"/>
  <path class="cls-1" d="M654.09,85.69c-.44,0-.8-.36-.8-.8v-4.11c0-.44.36-.8.8-.8s.8.36.8.8v4.11c0,.44-.36.8-.8.8Z"/>
  <path class="cls-1" d="M663.68,85.69c-.44,0-.8-.36-.8-.8v-4.11c0-.44.36-.8.8-.8s.8.36.8.8v4.11c0,.44-.36.8-.8.8Z"/>
  <path class="cls-1" d="M673.27,85.69c-.44,0-.8-.36-.8-.8v-4.11c0-.44.36-.8.8-.8s.8.36.8.8v4.11c0,.44-.36.8-.8.8Z"/>
  <path class="cls-1" d="M703.27,191.12c-.44,0-.8-.36-.8-.8v-4.11c0-.44.36-.8.8-.8s.8.36.8.8v4.11c0,.44-.36.8-.8.8Z"/>
  <path class="cls-1" d="M712.86,191.12c-.44,0-.8-.36-.8-.8v-4.11c0-.44.36-.8.8-.8s.8.36.8.8v4.11c0,.44-.36.8-.8.8Z"/>
  <path class="cls-1" d="M722.45,191.12c-.44,0-.8-.36-.8-.8v-4.11c0-.44.36-.8.8-.8s.8.36.8.8v4.11c0,.44-.36.8-.8.8Z"/>
  <path class="cls-1" d="M732.04,191.12c-.44,0-.8-.36-.8-.8v-4.11c0-.44.36-.8.8-.8s.8.36.8.8v4.11c0,.44-.36.8-.8.8Z"/>
  <path class="cls-1" d="M741.63,191.12c-.44,0-.8-.36-.8-.8v-4.11c0-.44.36-.8.8-.8s.8.36.8.8v4.11c0,.44-.36.8-.8.8Z"/>
  <path class="cls-1" d="M751.22,191.12c-.44,0-.8-.36-.8-.8v-4.11c0-.44.36-.8.8-.8s.8.36.8.8v4.11c0,.44-.36.8-.8.8Z"/>
  <path class="cls-1" d="M648.89,336.38c-.44,0-.8-.36-.8-.8v-6.36h-11.99c-.44,0-.8-.36-.8-.8s.36-.8.8-.8h12.79c.44,0,.8.36.8.8v7.16c0,.44-.36.8-.8.8Z"/>
  <path class="cls-1" d="M655.28,343.54c-.44,0-.8-.36-.8-.8v-6.36h-225.87c-.44,0-.8-.36-.8-.8s.36-.8.8-.8h226.66c.44,0,.8.36.8.8v7.16c0,.44-.36.8-.8.8Z"/>
  <path class="cls-1" d="M661.67,350.69c-.44,0-.8-.36-.8-.8v-6.36h-232.26c-.44,0-.8-.36-.8-.8s.36-.8.8-.8h233.06c.44,0,.8.36.8.8v7.16c0,.44-.36.8-.8.8Z"/>
  <path class="cls-1" d="M751.2,313.32h-29.69c-.44,0-.8-.36-.8-.8v-51.96c0-19.94,28.98-30.78,30.21-31.23.41-.15.87.06,1.02.47.15.41-.06.87-.47,1.02-.29.11-29.17,10.91-29.17,29.74v51.16h28.89c.44,0,.8.36.8.8s-.36.8-.8.8Z"/>
  <path class="cls-1" d="M673.27,187.01h-17.99c-.21,0-.41-.08-.56-.23l-7.72-7.55c-.23-.23-.3-.57-.18-.87.12-.3.41-.5.74-.5h25.71c.44,0,.8.36.8.8s-.36.8-.8.8h-23.76l6.09,5.96h17.67c.44,0,.8.36.8.8s-.36.8-.8.8Z"/>
  <path class="cls-1" d="M655.28,329.22c-.44,0-.8-.36-.8-.8v-142.21c0-.44.36-.8.8-.8s.8.36.8.8v142.21c0,.44-.36.8-.8.8Z"/>
  <path class="cls-1" d="M673.27,258.12h-8.48c-.44,0-.8-.36-.8-.8v-50.03c0-3.56,2.98-5.38,5.38-6.84,1.67-1.02,3.11-1.9,3.11-2.97,0-.44.36-.8.8-.8s.8.36.8.8c0,1.96-1.88,3.11-3.87,4.33-2.27,1.39-4.62,2.82-4.62,5.49v49.23h7.69c.44,0,.8.36.8.8s-.36.8-.8.8Z"/>
  <path class="cls-1" d="M673.27,329.22h-8.48c-.44,0-.8-.36-.8-.8v-50.03c0-3.56,2.98-5.38,5.38-6.84,1.67-1.02,3.1-1.9,3.1-2.97,0-.44.36-.8.8-.8s.8.36.8.8c0,1.96-1.88,3.11-3.87,4.32-2.27,1.39-4.62,2.82-4.62,5.49v49.23h7.69c.44,0,.8.36.8.8s-.36.8-.8.8Z"/>
  <path class="cls-1" d="M658.96,179.46c-.44,0-.8-.36-.8-.8v-23.22l-5.81-4.8c-.26-.21-.36-.57-.24-.88.11-.32.41-.53.75-.53h20.41c.44,0,.8.36.8.8s-.36.8-.8.8h-18.2l4.39,3.63c.18.15.29.38.29.61v23.59c0,.44-.36.8-.8.8Z"/>
  <path class="cls-1" d="M662.94,150.83c-.44,0-.8-.36-.8-.8v-23.22l-5.81-4.8c-.26-.21-.36-.57-.24-.88.11-.32.41-.53.75-.53h16.43c.44,0,.8.35.8.79s-.36.8-.8.8h-14.22s4.39,3.63,4.39,3.63c.18.15.29.38.29.61v23.59c0,.44-.36.8-.8.8Z"/>
  <path class="cls-1" d="M660.42,122.2c-.44,0-.8-.36-.8-.8,0-9.72,4.21-12.17,7.92-14.33,2.22-1.3,4.14-2.41,4.97-5,.14-.42.59-.65,1-.51.42.13.65.58.51,1-1.02,3.16-3.39,4.55-5.69,5.88-3.51,2.04-7.13,4.15-7.13,12.96,0,.44-.36.8-.8.8Z"/>
  <path class="cls-1" d="M691.27,187.01h-17.99c-.44,0-.8-.36-.8-.8s.36-.8.8-.8h17.67l6.09-5.96h-23.76c-.44,0-.8-.36-.8-.8s.36-.8.8-.8h25.71c.32,0,.61.2.74.5.12.3.05.64-.18.87l-7.72,7.55c-.15.15-.35.23-.56.23Z"/>
  <path class="cls-1" d="M691.27,329.22c-.44,0-.8-.36-.8-.8v-142.21c0-.44.36-.8.8-.8s.8.36.8.8v142.21c0,.44-.36.8-.8.8Z"/>
  <path class="cls-1" d="M681.76,258.12h-8.48c-.44,0-.8-.36-.8-.8s.36-.8.8-.8h7.69v-49.23c0-2.67-2.35-4.1-4.62-5.49-1.99-1.21-3.87-2.36-3.87-4.33,0-.44.36-.8.8-.8s.8.36.8.8c0,1.07,1.44,1.95,3.11,2.97,2.39,1.46,5.38,3.28,5.38,6.84v50.03c0,.44-.36.8-.8.8Z"/>
  <path class="cls-1" d="M681.76,329.22h-8.48c-.44,0-.8-.36-.8-.8s.36-.8.8-.8h7.69v-49.23c0-2.67-2.35-4.1-4.62-5.49-1.99-1.21-3.87-2.36-3.87-4.32,0-.44.36-.8.8-.8s.8.36.8.8c0,1.07,1.44,1.95,3.1,2.97,2.4,1.46,5.38,3.28,5.38,6.84v50.03c0,.44-.36.8-.8.8Z"/>
  <path class="cls-1" d="M687.59,179.46c-.44,0-.8-.36-.8-.8v-23.59c0-.24.11-.46.29-.61l4.39-3.63h-18.2c-.44,0-.8-.36-.8-.8s.36-.8.8-.8h20.41c.34,0,.63.21.75.53.11.32.02.67-.24.88l-5.81,4.8v23.22c0,.44-.36.8-.8.8Z"/>
  <path class="cls-1" d="M683.61,150.83c-.44,0-.8-.36-.8-.8v-23.59c0-.24.11-.46.29-.61l4.39-3.63h-14.22c-.44,0-.8-.36-.8-.8s.36-.8.8-.8h16.43c.34,0,.63.21.75.53.11.32.02.67-.24.88l-5.81,4.8v23.22c0,.44-.36.8-.8.8Z"/>
  <path class="cls-1" d="M686.13,122.2c-.44,0-.8-.36-.8-.8,0-8.8-3.63-10.91-7.13-12.96-2.3-1.34-4.67-2.72-5.69-5.88-.13-.42.1-.87.51-1,.42-.14.87.09,1,.51.83,2.58,2.75,3.7,4.97,5,3.71,2.16,7.92,4.61,7.92,14.33,0,.44-.36.8-.8.8Z"/>
  <path class="cls-1" d="M751.2,329.22h-102.32c-.44,0-.8-.36-.8-.8s.36-.8.8-.8h102.32c.44,0,.8.36.8.8s-.36.8-.8.8Z"/>
  <path class="cls-1" d="M751.2,179.46h-52.22c-.44,0-.8-.36-.8-.8s.36-.8.8-.8h52.22c.44,0,.8.36.8.8s-.36.8-.8.8Z"/>
  <path class="cls-1" d="M751.2,187.01h-50.1c-.44,0-.8-.36-.8-.8s.36-.8.8-.8h50.1c.44,0,.8.36.8.8s-.36.8-.8.8Z"/>
  <path class="cls-1" d="M703.27,329.22c-.44,0-.8-.36-.8-.8v-130.94c0-.44.36-.8.8-.8h47.93c.44,0,.8.36.8.8s-.36.8-.8.8h-47.14v130.15c0,.44-.36.8-.8.8Z"/>
  <path class="cls-1" d="M721.52,261.36c-.44,0-.8-.36-.8-.8v-51.42c0-.44.36-.8.8-.8h29.69c.44,0,.8.36.8.8s-.36.8-.8.8h-28.89v50.63c0,.44-.36.8-.8.8Z"/>
  <path class="cls-1" d="M704.29,150.83h-10.6c-.44,0-.8-.36-.8-.8s.36-.8.8-.8h10.6c.44,0,.8.36.8.8s-.36.8-.8.8Z"/>
  <path class="cls-1" d="M669.03,150.83c-.44,0-.8-.36-.8-.8v-12.72c0-5,4.56-6.77,4.76-6.84.41-.16.87.05,1.02.46s-.05.87-.46,1.03c-.15.06-3.73,1.47-3.73,5.35v12.72c0,.44-.36.8-.8.8Z"/>
  <path class="cls-1" d="M677.52,150.83c-.44,0-.8-.36-.8-.8v-12.72c0-3.88-3.58-5.29-3.73-5.35-.41-.16-.62-.62-.46-1.03s.61-.62,1.02-.46c.19.07,4.76,1.84,4.76,6.84v12.72c0,.44-.36.8-.8.8Z"/>
  <path class="cls-1" d="M751.2,336.38h-77.93c-.44,0-.8-.36-.8-.8s.36-.8.8-.8h77.93c.44,0,.8.36.8.8s-.36.8-.8.8Z"/>
  <path class="cls-1" d="M751.2,343.54h-59.94c-.44,0-.8-.36-.8-.8s.36-.8.8-.8h59.94c.44,0,.8.36.8.8s-.36.8-.8.8Z"/>
  <path class="cls-1" d="M745.37,168.06c-.44,0-.8-.36-.8-.8,0-7.18,6.41-8.71,6.47-8.73.43-.1.85.17.95.6.1.43-.17.85-.59.95-.21.05-5.23,1.29-5.23,7.18,0,.44-.36.8-.8.8Z"/>
  <path class="cls-1" d="M745.37,168.06c-.44,0-.8-.36-.8-.8,0-5.89-5.02-7.13-5.23-7.18-.43-.1-.69-.53-.59-.95s.53-.7.95-.6c.07.01,6.47,1.55,6.47,8.73,0,.44-.36.8-.8.8Z"/>
  <path class="cls-1" d="M733.67,168.06c-.44,0-.8-.36-.8-.8,0-7.18,6.41-8.71,6.47-8.73.43-.1.85.17.95.6.1.43-.17.85-.59.95-.21.05-5.23,1.29-5.23,7.18,0,.44-.36.8-.8.8Z"/>
  <path class="cls-1" d="M733.67,168.06c-.44,0-.8-.36-.8-.8,0-5.89-5.02-7.13-5.23-7.18-.43-.1-.69-.53-.59-.95s.53-.7.95-.6c.07.01,6.47,1.55,6.47,8.73,0,.44-.36.8-.8.8Z"/>
  <path class="cls-1" d="M721.97,168.06c-.44,0-.8-.36-.8-.8,0-7.18,6.4-8.71,6.47-8.73.43-.1.85.17.95.6.1.43-.17.85-.59.95-.21.05-5.23,1.29-5.23,7.18,0,.44-.36.8-.8.8Z"/>
  <path class="cls-1" d="M721.97,168.06c-.44,0-.8-.36-.8-.8,0-5.89-5.02-7.13-5.23-7.18-.43-.1-.69-.53-.59-.95s.53-.7.95-.6c.07.01,6.47,1.55,6.47,8.73,0,.44-.36.8-.8.8Z"/>
  <path class="cls-1" d="M710.27,168.06c-.44,0-.8-.36-.8-.8,0-7.18,6.41-8.71,6.47-8.73.43-.1.85.17.95.6.1.43-.17.85-.59.95-.21.05-5.23,1.29-5.23,7.18,0,.44-.36.8-.8.8Z"/>
  <path class="cls-1" d="M710.27,168.06c-.44,0-.8-.36-.8-.8,0-5.89-5.02-7.13-5.23-7.18-.43-.1-.69-.53-.59-.95s.53-.7.95-.6c.07.01,6.47,1.55,6.47,8.73,0,.44-.36.8-.8.8Z"/>
  <path class="cls-1" d="M698.57,168.06c-.44,0-.8-.36-.8-.8,0-7.18,6.4-8.71,6.47-8.73.43-.1.85.17.95.6.1.43-.17.85-.59.95-.21.05-5.23,1.29-5.23,7.18,0,.44-.36.8-.8.8Z"/>
  <path class="cls-1" d="M698.57,168.06c-.44,0-.8-.36-.8-.8,0-5.89-5.02-7.13-5.23-7.18-.43-.1-.69-.53-.59-.95s.52-.7.95-.6c.07.01,6.47,1.55,6.47,8.73,0,.44-.36.8-.8.8Z"/>
  <path class="cls-1" d="M767.9,227.97c-3.21,0-5.83-2.62-5.83-5.83s2.61-5.83,5.83-5.83,5.83,2.62,5.83,5.83-2.61,5.83-5.83,5.83ZM767.9,217.9c-2.34,0-4.24,1.9-4.24,4.24s1.9,4.24,4.24,4.24,4.24-1.9,4.24-4.24-1.9-4.24-4.24-4.24Z"/>
  <path class="cls-1" d="M799.13,191.12c-.44,0-.8-.36-.8-.8v-4.11c0-.44.36-.8.8-.8s.8.36.8.8v4.11c0,.44-.36.8-.8.8Z"/>
  <path class="cls-1" d="M789.54,191.12c-.44,0-.8-.36-.8-.8v-4.11c0-.44.36-.8.8-.8s.8.36.8.8v4.11c0,.44-.36.8-.8.8Z"/>
  <path class="cls-1" d="M779.95,191.12c-.44,0-.8-.36-.8-.8v-4.11c0-.44.36-.8.8-.8s.8.36.8.8v4.11c0,.44-.36.8-.8.8Z"/>
  <path class="cls-1" d="M770.36,191.12c-.44,0-.8-.36-.8-.8v-4.11c0-.44.36-.8.8-.8s.8.36.8.8v4.11c0,.44-.36.8-.8.8Z"/>
  <path class="cls-1" d="M760.78,191.12c-.44,0-.8-.36-.8-.8v-4.11c0-.44.36-.8.8-.8s.8.36.8.8v4.11c0,.44-.36.8-.8.8Z"/>
  <path class="cls-1" d="M751.19,191.12c-.44,0-.8-.36-.8-.8v-4.11c0-.44.36-.8.8-.8s.8.36.8.8v4.11c0,.44-.36.8-.8.8Z"/>
  <path class="cls-1" d="M780.89,313.32h-29.69c-.44,0-.8-.36-.8-.8s.36-.8.8-.8h28.89v-51.16c0-18.83-28.87-29.63-29.17-29.74-.41-.15-.62-.61-.47-1.02.15-.41.61-.62,1.02-.47,1.23.45,30.21,11.29,30.21,31.23v51.96c0,.44-.36.8-.8.8Z"/>
  <path class="cls-1" d="M847.13,187.01h-17.99c-.44,0-.8-.36-.8-.8s.36-.8.8-.8h17.99c.44,0,.8.36.8.8s-.36.8-.8.8Z"/>
  <path class="cls-1" d="M843.44,179.46h-14.3c-.44,0-.8-.36-.8-.8s.36-.8.8-.8h14.3c.44,0,.8.36.8.8s-.36.8-.8.8Z"/>
  <path class="cls-1" d="M837.62,258.12h-8.48c-.44,0-.8-.36-.8-.8s.36-.8.8-.8h7.69v-49.23c0-2.67-2.35-4.1-4.62-5.49-1.99-1.21-3.87-2.36-3.87-4.33,0-.44.36-.8.8-.8s.8.36.8.8c0,1.07,1.44,1.95,3.11,2.97,2.39,1.46,5.38,3.28,5.38,6.84v50.03c0,.44-.36.8-.8.8Z"/>
  <path class="cls-1" d="M837.62,329.22h-8.48c-.44,0-.8-.36-.8-.8s.36-.8.8-.8h7.69v-49.23c0-2.67-2.35-4.1-4.62-5.49-1.99-1.21-3.87-2.36-3.87-4.32,0-.44.36-.8.8-.8s.8.36.8.8c0,1.07,1.44,1.95,3.1,2.97,2.4,1.46,5.38,3.28,5.38,6.84v50.03c0,.44-.36.8-.8.8Z"/>
  <path class="cls-1" d="M839.46,150.83h-10.32c-.44,0-.8-.36-.8-.8s.36-.8.8-.8h10.32c.44,0,.8.36.8.8s-.36.8-.8.8Z"/>
  <path class="cls-1" d="M841.98,122.2h-12.85c-.44,0-.8-.36-.8-.8s.36-.8.8-.8h12.85c.44,0,.8.36.8.8s-.36.8-.8.8Z"/>
  <path class="cls-1" d="M829.13,187.01h-17.99c-.21,0-.41-.08-.56-.23l-7.72-7.55c-.23-.23-.3-.57-.18-.87.12-.3.41-.5.74-.5h25.71c.44,0,.8.36.8.8s-.36.8-.8.8h-23.76l6.09,5.96h17.67c.44,0,.8.36.8.8s-.36.8-.8.8Z"/>
  <path class="cls-1" d="M811.14,329.22c-.44,0-.8-.36-.8-.8v-142.21c0-.44.36-.8.8-.8s.8.36.8.8v142.21c0,.44-.36.8-.8.8Z"/>
  <path class="cls-1" d="M829.13,258.12h-8.48c-.44,0-.8-.36-.8-.8v-50.03c0-3.56,2.98-5.38,5.38-6.84,1.67-1.02,3.11-1.9,3.11-2.97,0-.44.36-.8.8-.8s.8.36.8.8c0,1.96-1.88,3.11-3.87,4.33-2.27,1.39-4.62,2.82-4.62,5.49v49.23h7.69c.44,0,.8.36.8.8s-.36.8-.8.8Z"/>
  <path class="cls-1" d="M829.13,329.22h-8.48c-.44,0-.8-.36-.8-.8v-50.03c0-3.56,2.98-5.38,5.38-6.84,1.67-1.02,3.1-1.9,3.1-2.97,0-.44.36-.8.8-.8s.8.36.8.8c0,1.96-1.88,3.11-3.87,4.32-2.27,1.39-4.62,2.82-4.62,5.49v49.23h7.69c.44,0,.8.36.8.8s-.36.8-.8.8Z"/>
  <path class="cls-1" d="M814.82,179.46c-.44,0-.8-.36-.8-.8v-23.22l-5.81-4.8c-.26-.21-.36-.57-.24-.88.11-.32.41-.53.75-.53h20.41c.44,0,.8.36.8.8s-.36.8-.8.8h-18.2l4.39,3.63c.18.15.29.38.29.61v23.59c0,.44-.36.8-.8.8Z"/>
  <path class="cls-1" d="M816.29,122.2c-.44,0-.8-.36-.8-.8s.36-.8.8-.8h12.85c.44,0,.8.35.8.79s-.36.8-.8.8h-12.85Z"/>
  <path class="cls-1" d="M847.13,329.22h-95.92c-.44,0-.8-.36-.8-.8s.36-.8.8-.8h95.92c.44,0,.8.36.8.8s-.36.8-.8.8Z"/>
  <path class="cls-1" d="M803.42,179.46h-52.22c-.44,0-.8-.36-.8-.8s.36-.8.8-.8h52.22c.44,0,.8.36.8.8s-.36.8-.8.8Z"/>
  <path class="cls-1" d="M801.3,187.01h-50.1c-.44,0-.8-.36-.8-.8s.36-.8.8-.8h50.1c.44,0,.8.36.8.8s-.36.8-.8.8Z"/>
  <path class="cls-1" d="M799.13,329.22c-.44,0-.8-.36-.8-.8v-130.15h-47.13c-.44,0-.8-.36-.8-.8s.36-.8.8-.8h47.93c.44,0,.8.36.8.8v130.94c0,.44-.36.8-.8.8Z"/>
  <path class="cls-1" d="M780.89,261.36c-.44,0-.8-.36-.8-.8v-50.63h-28.89c-.44,0-.8-.36-.8-.8s.36-.8.8-.8h29.69c.44,0,.8.36.8.8v51.42c0,.44-.36.8-.8.8Z"/>
  <path class="cls-1" d="M833.38,150.83c-.44,0-.8-.36-.8-.8v-12.72c0-3.88-3.58-5.29-3.73-5.35-.41-.16-.62-.62-.46-1.03.15-.41.61-.62,1.02-.46.19.07,4.76,1.84,4.76,6.84v12.72c0,.44-.36.8-.8.8Z"/>
  <path class="cls-1" d="M824.89,150.83c-.44,0-.8-.36-.8-.8v-12.72c0-5,4.56-6.77,4.76-6.84.41-.16.87.05,1.02.46s-.05.87-.46,1.03c-.15.06-3.73,1.47-3.73,5.35v12.72c0,.44-.36.8-.8.8Z"/>
  <path class="cls-1" d="M829.13,336.38h-77.93c-.44,0-.8-.36-.8-.8s.36-.8.8-.8h77.93c.44,0,.8.36.8.8s-.36.8-.8.8Z"/>
  <path class="cls-1" d="M811.14,343.54h-59.94c-.44,0-.8-.36-.8-.8s.36-.8.8-.8h59.94c.44,0,.8.36.8.8s-.36.8-.8.8Z"/>
  <path class="cls-1" d="M757.04,168.06c-.44,0-.8-.36-.8-.8,0-5.89-5.02-7.13-5.23-7.18-.43-.1-.69-.53-.59-.95s.53-.7.95-.6c.07.01,6.47,1.55,6.47,8.73,0,.44-.36.8-.8.8Z"/>
  <path class="cls-1" d="M757.04,168.06c-.44,0-.8-.36-.8-.8,0-7.18,6.41-8.71,6.47-8.73.43-.1.85.17.95.6.1.43-.17.85-.59.95-.21.05-5.23,1.29-5.23,7.18,0,.44-.36.8-.8.8Z"/>
  <path class="cls-1" d="M768.74,168.06c-.44,0-.8-.36-.8-.8,0-5.89-5.02-7.13-5.23-7.18-.43-.1-.69-.53-.59-.95.1-.43.52-.7.95-.6.07.01,6.47,1.55,6.47,8.73,0,.44-.36.8-.8.8Z"/>
  <path class="cls-1" d="M768.74,168.06c-.44,0-.8-.36-.8-.8,0-7.18,6.4-8.71,6.47-8.73.43-.1.85.17.95.6s-.17.85-.59.95c-.21.05-5.23,1.29-5.23,7.18,0,.44-.36.8-.8.8Z"/>
  <path class="cls-1" d="M780.44,168.06c-.44,0-.8-.36-.8-.8,0-5.89-5.02-7.13-5.23-7.18-.43-.1-.69-.53-.59-.95s.52-.7.95-.6c.07.01,6.47,1.55,6.47,8.73,0,.44-.36.8-.8.8Z"/>
  <path class="cls-1" d="M780.44,168.06c-.44,0-.8-.36-.8-.8,0-7.18,6.41-8.71,6.47-8.73.42-.1.85.17.95.6s-.17.85-.59.95c-.21.05-5.23,1.29-5.23,7.18,0,.44-.36.8-.8.8Z"/>
  <path class="cls-1" d="M792.14,168.06c-.44,0-.8-.36-.8-.8,0-5.89-5.02-7.13-5.23-7.18-.43-.1-.69-.53-.59-.95s.53-.7.95-.6c.07.01,6.47,1.55,6.47,8.73,0,.44-.36.8-.8.8Z"/>
  <path class="cls-1" d="M792.14,168.06c-.44,0-.8-.36-.8-.8,0-7.18,6.41-8.71,6.47-8.73.43-.1.85.17.95.6.1.43-.17.85-.59.95-.21.05-5.23,1.29-5.23,7.18,0,.44-.36.8-.8.8Z"/>
  <path class="cls-1" d="M803.84,168.06c-.44,0-.8-.36-.8-.8,0-5.89-5.02-7.13-5.23-7.18-.43-.1-.69-.53-.59-.95s.53-.7.95-.6c.07.01,6.47,1.55,6.47,8.73,0,.44-.36.8-.8.8Z"/>
  <path class="cls-1" d="M803.84,168.06c-.44,0-.8-.36-.8-.8,0-7.18,6.41-8.71,6.47-8.73.43-.1.85.17.95.6.1.43-.17.85-.59.95-.21.05-5.23,1.29-5.23,7.18,0,.44-.36.8-.8.8Z"/>
  <path class="cls-1" d="M584.95,168.06c-.44,0-.8-.36-.8-.8,0-7.18,6.41-8.71,6.47-8.73.43-.1.85.17.95.6.1.43-.17.85-.59.95-.21.05-5.23,1.29-5.23,7.18,0,.44-.36.8-.8.8Z"/>
  <path class="cls-1" d="M584.95,168.06c-.44,0-.8-.36-.8-.8,0-5.89-5.02-7.13-5.23-7.18-.43-.1-.69-.53-.59-.95s.52-.7.95-.6c.07.01,6.47,1.55,6.47,8.73,0,.44-.36.8-.8.8Z"/>
  <path class="cls-1" d="M573.25,168.06c-.44,0-.8-.36-.8-.8,0-7.18,6.4-8.71,6.47-8.73.43-.1.85.17.95.6.1.43-.17.85-.59.95-.21.05-5.23,1.29-5.23,7.18,0,.44-.36.8-.8.8Z"/>
  <path class="cls-1" d="M573.25,168.06c-.44,0-.8-.36-.8-.8,0-5.89-5.02-7.13-5.23-7.18-.43-.1-.69-.53-.59-.95s.53-.7.95-.6c.07.01,6.47,1.55,6.47,8.73,0,.44-.36.8-.8.8Z"/>
  <path class="cls-1" d="M561.55,168.06c-.44,0-.8-.36-.8-.8,0-7.18,6.41-8.71,6.47-8.73.43-.1.85.17.95.6.1.43-.17.85-.59.95-.21.05-5.23,1.29-5.23,7.18,0,.44-.36.8-.8.8Z"/>
  <path class="cls-1" d="M561.55,168.06c-.44,0-.8-.36-.8-.8,0-5.89-5.02-7.13-5.23-7.18-.43-.1-.69-.53-.59-.95s.53-.7.95-.6c.07.01,6.47,1.55,6.47,8.73,0,.44-.36.8-.8.8Z"/>
  <path class="cls-1" d="M549.85,168.06c-.44,0-.8-.36-.8-.8,0-7.18,6.4-8.71,6.47-8.73.43-.1.85.17.95.6.1.43-.17.85-.59.95-.21.05-5.23,1.29-5.23,7.18,0,.44-.36.8-.8.8Z"/>
  <path class="cls-1" d="M549.85,168.06c-.44,0-.8-.36-.8-.8,0-5.89-5.02-7.13-5.23-7.18-.43-.1-.69-.53-.59-.95s.53-.7.95-.6c.07.01,6.47,1.55,6.47,8.73,0,.44-.36.8-.8.8Z"/>
  <path class="cls-1" d="M538.14,168.06c-.44,0-.8-.36-.8-.8,0-7.18,6.41-8.71,6.47-8.73.42-.1.85.17.95.6s-.17.85-.59.95c-.21.05-5.23,1.29-5.23,7.18,0,.44-.36.8-.8.8Z"/>
  <path class="cls-1" d="M538.14,168.06c-.44,0-.8-.36-.8-.8,0-5.89-5.02-7.13-5.23-7.18-.43-.1-.69-.53-.59-.95.1-.43.52-.7.95-.6.07.01,6.47,1.55,6.47,8.73,0,.44-.36.8-.8.8Z"/>
  <path class="cls-1" d="M596.61,168.06c-.44,0-.8-.36-.8-.8,0-5.89-5.02-7.13-5.23-7.18-.43-.1-.69-.53-.59-.95s.53-.7.95-.6c.07.01,6.47,1.55,6.47,8.73,0,.44-.36.8-.8.8Z"/>
  <path class="cls-1" d="M596.61,168.06c-.44,0-.8-.36-.8-.8,0-7.18,6.4-8.71,6.47-8.73.43-.1.85.17.95.6.1.43-.17.85-.59.95-.21.05-5.23,1.29-5.23,7.18,0,.44-.36.8-.8.8Z"/>
  <path class="cls-1" d="M608.31,168.06c-.44,0-.8-.36-.8-.8,0-5.89-5.02-7.13-5.23-7.18-.43-.1-.69-.53-.59-.95.1-.43.52-.7.95-.6.07.01,6.47,1.55,6.47,8.73,0,.44-.36.8-.8.8Z"/>
  <path class="cls-1" d="M608.31,168.06c-.44,0-.8-.36-.8-.8,0-7.18,6.41-8.71,6.47-8.73.43-.1.85.17.95.6s-.17.85-.59.95c-.21.05-5.23,1.29-5.23,7.18,0,.44-.36.8-.8.8Z"/>
  <path class="cls-1" d="M620.01,168.06c-.44,0-.8-.36-.8-.8,0-5.89-5.02-7.13-5.23-7.18-.43-.1-.69-.53-.59-.95.1-.43.52-.7.95-.6.07.01,6.47,1.55,6.47,8.73,0,.44-.36.8-.8.8Z"/>
  <path class="cls-1" d="M620.01,168.06c-.44,0-.8-.36-.8-.8,0-7.18,6.4-8.71,6.47-8.73.42-.1.85.17.95.6s-.17.85-.59.95c-.21.05-5.23,1.29-5.23,7.18,0,.44-.36.8-.8.8Z"/>
  <path class="cls-1" d="M631.71,168.06c-.44,0-.8-.36-.8-.8,0-5.89-5.02-7.13-5.23-7.18-.43-.1-.69-.53-.59-.95s.53-.7.95-.6c.07.01,6.47,1.55,6.47,8.73,0,.44-.36.8-.8.8Z"/>
  <path class="cls-1" d="M631.71,168.06c-.44,0-.8-.36-.8-.8,0-7.18,6.41-8.71,6.47-8.73.43-.1.85.17.95.6.1.43-.17.85-.59.95-.21.05-5.23,1.29-5.23,7.18,0,.44-.36.8-.8.8Z"/>
  <path class="cls-1" d="M643.41,168.06c-.44,0-.8-.36-.8-.8,0-5.89-5.02-7.13-5.23-7.18-.43-.1-.69-.53-.59-.95s.53-.7.95-.6c.07.01,6.47,1.55,6.47,8.73,0,.44-.36.8-.8.8Z"/>
  <path class="cls-1" d="M643.41,168.06c-.44,0-.8-.36-.8-.8,0-7.18,6.41-8.71,6.47-8.73.43-.1.85.17.95.6.1.43-.17.85-.59.95-.21.05-5.23,1.29-5.23,7.18,0,.44-.36.8-.8.8Z"/>
  <path class="cls-1" d="M446.11,71.71c-.44,0-.8-.36-.8-.8,0-7.18,6.41-8.71,6.47-8.73.42-.1.85.17.95.6.1.43-.17.85-.6.95-.21.05-5.23,1.29-5.23,7.18,0,.44-.36.8-.8.8Z"/>
  <path class="cls-1" d="M446.11,71.71c-.44,0-.8-.36-.8-.8,0-5.92-5.02-7.13-5.23-7.18-.43-.1-.7-.52-.6-.95s.52-.7.95-.6c.06.01,6.47,1.55,6.47,8.73,0,.44-.36.8-.8.8Z"/>
  <path class="cls-1" d="M434.41,71.71c-.44,0-.8-.36-.8-.8,0-7.18,6.41-8.71,6.47-8.73.43-.1.85.17.95.6.1.43-.17.85-.6.95-.21.05-5.23,1.29-5.23,7.18,0,.44-.36.8-.8.8Z"/>
  <path class="cls-1" d="M434.41,71.71c-.44,0-.8-.36-.8-.8,0-5.89-5.02-7.13-5.23-7.18-.43-.1-.69-.53-.6-.95.1-.42.52-.69.95-.6.06.01,6.47,1.55,6.47,8.73,0,.44-.36.8-.8.8Z"/>
  <path class="cls-1" d="M457.77,71.71c-.44,0-.8-.36-.8-.8,0-5.89-5.02-7.13-5.23-7.18-.43-.1-.69-.53-.6-.95.1-.42.52-.69.95-.6.06.01,6.47,1.55,6.47,8.73,0,.44-.36.8-.8.8Z"/>
  <path class="cls-1" d="M457.77,71.71c-.44,0-.8-.36-.8-.8,0-7.18,6.41-8.71,6.47-8.73.42-.1.85.17.95.6.1.43-.17.85-.6.95-.21.05-5.23,1.29-5.23,7.18,0,.44-.36.8-.8.8Z"/>
  <path class="cls-1" d="M469.47,71.71c-.44,0-.8-.36-.8-.8,0-5.89-5.02-7.13-5.23-7.18-.43-.1-.69-.53-.6-.95.1-.42.52-.69.95-.6.06.01,6.47,1.55,6.47,8.73,0,.44-.36.8-.8.8Z"/>
  <path class="cls-1" d="M469.47,71.71c-.44,0-.8-.36-.8-.8,0-7.18,6.41-8.71,6.47-8.73.43-.1.85.17.95.6.1.43-.17.85-.6.95-.21.05-5.23,1.29-5.23,7.18,0,.44-.36.8-.8.8Z"/>
  <path class="cls-1" d="M481.17,71.71c-.44,0-.8-.36-.8-.8,0-5.89-5.02-7.13-5.23-7.18-.43-.1-.69-.53-.6-.95.1-.42.53-.69.95-.6.06.01,6.47,1.55,6.47,8.73,0,.44-.36.8-.8.8Z"/>
  <path class="cls-1" d="M481.17,71.71c-.44,0-.8-.36-.8-.8,0-7.18,6.41-8.71,6.47-8.73.43-.1.85.17.95.6.1.43-.17.85-.6.95-.21.05-5.23,1.29-5.23,7.18,0,.44-.36.8-.8.8Z"/>
  <path class="cls-1" d="M492.87,71.71c-.44,0-.8-.36-.8-.8,0-5.92-5.02-7.13-5.23-7.18-.43-.1-.7-.52-.6-.95s.52-.7.95-.6c.06.01,6.47,1.55,6.47,8.73,0,.44-.36.8-.8.8Z"/>
  <path class="cls-1" d="M492.87,71.71c-.44,0-.8-.36-.8-.8,0-7.18,6.41-8.71,6.47-8.73.43-.1.85.17.95.6.1.43-.17.85-.6.95-.21.05-5.23,1.29-5.23,7.18,0,.44-.36.8-.8.8Z"/>
  <path class="cls-1" d="M504.58,71.71c-.44,0-.8-.36-.8-.8,0-5.89-5.02-7.13-5.23-7.18-.43-.1-.69-.53-.6-.95.1-.42.53-.69.95-.6.06.01,6.47,1.55,6.47,8.73,0,.44-.36.8-.8.8Z"/>
  <path class="cls-1" d="M504.58,71.71c-.44,0-.8-.36-.8-.8,0-7.18,6.41-8.71,6.47-8.73.43-.1.85.17.95.6.1.43-.17.85-.6.95-.21.05-5.23,1.29-5.23,7.18,0,.44-.36.8-.8.8Z"/>
  <path class="cls-1" d="M629.09,251.56h-28.46c-.44,0-.8-.36-.8-.8s.36-.8.8-.8h28.46c.44,0,.8.36.8.8s-.36.8-.8.8Z"/>
  <path class="cls-1" d="M566.22,251.56h-28.46c-.44,0-.8-.36-.8-.8s.36-.8.8-.8h28.46c.44,0,.8.36.8.8s-.36.8-.8.8Z"/>
  <path class="cls-1" d="M504.53,251.56h-28.46c-.44,0-.8-.36-.8-.8s.36-.8.8-.8h28.46c.44,0,.8.36.8.8s-.36.8-.8.8Z"/>
  <path class="cls-1" d="M444.04,251.56h-28.46c-.44,0-.8-.36-.8-.8s.36-.8.8-.8h28.46c.44,0,.8.36.8.8s-.36.8-.8.8Z"/>
  <path class="cls-1" d="M523.67,179.46c-.44,0-.8-.36-.8-.8v-88.8h-94.26c-.44,0-.8-.36-.8-.8s.36-.8.8-.8h95.05c.44,0,.8.36.8.8v89.59c0,.44-.36.8-.8.8Z"/>
  <path class="cls-1" d="M523.68,77.41h-95.06c-.44,0-.8-.36-.8-.8s.36-.8.8-.8h95.06c.44,0,.8.36.8.8s-.36.8-.8.8Z"/>
  <path class="cls-1" d="M523.67,89.86c-.21,0-.42-.08-.57-.24-.31-.32-.3-.82.02-1.12l8.65-8.35c.32-.3.82-.3,1.12.02.31.32.3.82-.02,1.12l-8.65,8.35c-.15.15-.35.22-.55.22Z"/>
  <path class="cls-1" d="M451.94,179.46c-.44,0-.8-.36-.8-.8v-74.48h-22.53c-.44,0-.8-.36-.8-.8s.36-.8.8-.8h23.33c.44,0,.8.36.8.8v75.28c0,.44-.36.8-.8.8Z"/>
  <path class="cls-1" d="M444.2,142.88h-15.59c-.44,0-.8-.36-.8-.8s.36-.8.8-.8h15.59c.44,0,.8.36.8.8s-.36.8-.8.8Z"/>
  <path class="cls-1" d="M444.2,159.84h-15.59c-.44,0-.8-.36-.8-.8s.36-.8.8-.8h15.59c.44,0,.8.36.8.8s-.36.8-.8.8Z"/>
  <path class="cls-1" d="M434.45,171.24c-.44,0-.8-.36-.8-.8v-51.36c0-.44.36-.8.8-.8s.8.36.8.8v51.36c0,.44-.36.8-.8.8Z"/>
  <path class="cls-1" d="M503.43,171.24h-15.59c-.44,0-.8-.36-.8-.8s.36-.8.8-.8h14.79v-37.93c0-8.82-14.93-14.81-15.08-14.87-.41-.16-.61-.62-.45-1.03.16-.41.63-.61,1.03-.45.66.26,16.09,6.45,16.09,16.35v38.73c0,.44-.36.8-.8.8Z"/>
  <path class="cls-1" d="M511.17,179.46c-.44,0-.8-.36-.8-.8v-74.48h-22.53c-.44,0-.8-.36-.8-.8s.36-.8.8-.8h23.32c.44,0,.8.36.8.8v75.28c0,.44-.36.8-.8.8Z"/>
  <path class="cls-1" d="M503.43,142.88h-15.59c-.44,0-.8-.36-.8-.8s.36-.8.8-.8h15.59c.44,0,.8.36.8.8s-.36.8-.8.8Z"/>
  <path class="cls-1" d="M503.43,159.84h-15.59c-.44,0-.8-.36-.8-.8s.36-.8.8-.8h15.59c.44,0,.8.36.8.8s-.36.8-.8.8Z"/>
  <path class="cls-1" d="M493.67,171.24c-.44,0-.8-.36-.8-.8v-51.36c0-.44.36-.8.8-.8s.8.36.8.8v51.36c0,.44-.36.8-.8.8Z"/>
  <path class="cls-1" d="M487.84,171.24h-15.59c-.44,0-.8-.36-.8-.8v-38.73c0-9.9,15.43-16.09,16.09-16.35.41-.17.87.04,1.03.45.16.41-.04.87-.45,1.03-.15.06-15.08,6.05-15.08,14.87v37.93h14.79c.44,0,.8.36.8.8s-.36.8-.8.8Z"/>
  <path class="cls-1" d="M464.52,179.46c-.44,0-.8-.36-.8-.8v-75.28c0-.44.36-.8.8-.8h23.33c.44,0,.8.36.8.8s-.36.8-.8.8h-22.53v74.48c0,.44-.36.8-.8.8Z"/>
  <path class="cls-1" d="M569.63,118.75c-3.21,0-5.83-2.61-5.83-5.83s2.61-5.83,5.83-5.83,5.83,2.62,5.83,5.83-2.61,5.83-5.83,5.83ZM569.63,108.69c-2.34,0-4.24,1.9-4.24,4.24s1.9,4.24,4.24,4.24,4.24-1.9,4.24-4.24-1.9-4.24-4.24-4.24Z"/>
  <path class="cls-1" d="M542.94,118.75c-3.21,0-5.83-2.61-5.83-5.83s2.61-5.83,5.83-5.83,5.83,2.62,5.83,5.83-2.61,5.83-5.83,5.83ZM542.94,108.69c-2.34,0-4.24,1.9-4.24,4.24s1.9,4.24,4.24,4.24,4.24-1.9,4.24-4.24-1.9-4.24-4.24-4.24Z"/>
  <path class="cls-1" d="M571.49,150.83c-.44,0-.8-.36-.8-.8v-18.32c0-8.82-14.93-14.81-15.08-14.87-.41-.16-.61-.62-.45-1.03.16-.41.62-.61,1.03-.45.66.26,16.09,6.45,16.09,16.35v18.32c0,.44-.36.8-.8.8Z"/>
  <path class="cls-1" d="M579.22,150.83c-.44,0-.8-.36-.8-.8v-45.86h-22.53c-.44,0-.8-.36-.8-.8s.36-.8.8-.8h23.32c.44,0,.8.36.8.8v46.65c0,.44-.36.8-.8.8Z"/>
  <path class="cls-1" d="M540.31,150.83c-.44,0-.8-.36-.8-.8v-18.32c0-9.9,15.43-16.09,16.09-16.35.41-.17.87.04,1.03.45.16.41-.04.87-.45,1.03-.15.06-15.08,6.05-15.08,14.87v18.32c0,.44-.36.8-.8.8Z"/>
  <path class="cls-1" d="M532.57,150.83c-.44,0-.8-.36-.8-.8v-46.65c0-.44.36-.8.8-.8h23.33c.44,0,.8.36.8.8s-.36.8-.8.8h-22.53v45.86c0,.44-.36.8-.8.8Z"/>
  <path class="cls-1" d="M624.65,118.75c-3.21,0-5.83-2.61-5.83-5.83s2.61-5.83,5.83-5.83,5.83,2.62,5.83,5.83-2.61,5.83-5.83,5.83ZM624.65,108.69c-2.34,0-4.24,1.9-4.24,4.24s1.9,4.24,4.24,4.24,4.24-1.9,4.24-4.24-1.9-4.24-4.24-4.24Z"/>
  <path class="cls-1" d="M597.96,118.75c-3.21,0-5.83-2.61-5.83-5.83s2.61-5.83,5.83-5.83,5.83,2.62,5.83,5.83-2.61,5.83-5.83,5.83ZM597.96,108.69c-2.34,0-4.24,1.9-4.24,4.24s1.9,4.24,4.24,4.24,4.24-1.9,4.24-4.24-1.9-4.24-4.24-4.24Z"/>
  <path class="cls-1" d="M626.5,150.83c-.44,0-.8-.36-.8-.8v-18.32c0-8.82-14.93-14.81-15.08-14.87-.41-.16-.61-.62-.45-1.03.16-.41.62-.61,1.03-.45.66.26,16.09,6.45,16.09,16.35v18.32c0,.44-.36.8-.8.8Z"/>
  <path class="cls-1" d="M634.24,150.83c-.44,0-.8-.36-.8-.8v-45.86h-22.53c-.44,0-.8-.36-.8-.8s.36-.8.8-.8h23.33c.44,0,.8.36.8.8v46.65c0,.44-.36.8-.8.8Z"/>
  <path class="cls-1" d="M595.33,150.83c-.44,0-.8-.36-.8-.8v-18.32c0-9.9,15.43-16.09,16.09-16.35.41-.17.87.04,1.03.45.16.41-.04.87-.45,1.03-.15.06-15.08,6.05-15.08,14.87v18.32c0,.44-.36.8-.8.8Z"/>
  <path class="cls-1" d="M587.59,150.83c-.44,0-.8-.36-.8-.8v-46.65c0-.44.36-.8.8-.8h23.32c.44,0,.8.36.8.8s-.36.8-.8.8h-22.53v45.86c0,.44-.36.8-.8.8Z"/>
  <path class="cls-1" d="M487.84,142.88h-15.59c-.44,0-.8-.36-.8-.8s.36-.8.8-.8h15.59c.44,0,.8.36.8.8s-.36.8-.8.8Z"/>
  <path class="cls-1" d="M487.84,159.84h-15.59c-.44,0-.8-.36-.8-.8s.36-.8.8-.8h15.59c.44,0,.8.36.8.8s-.36.8-.8.8Z"/>
  <path class="cls-1" d="M482.01,171.24c-.44,0-.8-.36-.8-.8v-51.36c0-.44.36-.8.8-.8s.8.36.8.8v51.36c0,.44-.36.8-.8.8Z"/>
  <path class="cls-1" d="M523.67,58.06h-12.5c-.44,0-.8-.36-.8-.8s.36-.8.8-.8h12.5c.44,0,.8.36.8.8s-.36.8-.8.8Z"/>
  <path class="cls-1" d="M523.67,38.44h-12.5c-.44,0-.8-.36-.8-.8s.36-.8.8-.8h12.5c.44,0,.8.36.8.8s-.36.8-.8.8Z"/>
  <path class="cls-1" d="M652.86,150.83h-129.2c-.44,0-.8-.36-.8-.8s.36-.8.8-.8h129.2c.44,0,.8.36.8.8s-.36.8-.8.8Z"/>
  <path class="cls-1" d="M673.27,58.06h-31.7c-.44,0-.8-.36-.8-.8s.36-.8.8-.8h31.7c.44,0,.8.36.8.8s-.36.8-.8.8Z"/>
  <path class="cls-1" d="M642.26,150.83c-.44,0-.8-.36-.8-.8v-62.54l-5.02-6.28c-.19-.24-.23-.57-.1-.84.13-.27.41-.45.72-.45h36.21c.44,0,.8.36.8.8s-.36.8-.8.8h-34.56l4.16,5.2c.11.14.17.32.17.5v62.82c0,.44-.36.8-.8.8Z"/>
  <path class="cls-1" d="M673.27,64.55h-23.05c-.44,0-.8-.36-.8-.8s.36-.8.8-.8h23.05c.44,0,.8.36.8.8s-.36.8-.8.8Z"/>
  <path class="cls-1" d="M692.45,85.69c-.44,0-.8-.36-.8-.8v-4.11c0-.44.36-.8.8-.8s.8.36.8.8v4.11c0,.44-.36.8-.8.8Z"/>
  <path class="cls-1" d="M682.86,85.69c-.44,0-.8-.36-.8-.8v-4.11c0-.44.36-.8.8-.8s.8.36.8.8v4.11c0,.44-.36.8-.8.8Z"/>
  <path class="cls-1" d="M704.97,58.06h-31.7c-.44,0-.8-.36-.8-.8s.36-.8.8-.8h31.7c.44,0,.8.36.8.8s-.36.8-.8.8Z"/>
  <path class="cls-1" d="M704.28,81.51h-31c-.44,0-.8-.36-.8-.8s.36-.8.8-.8h31c.44,0,.8.36.8.8s-.36.8-.8.8Z"/>
  <path class="cls-1" d="M696.33,64.55h-23.05c-.44,0-.8-.36-.8-.8s.36-.8.8-.8h23.05c.44,0,.8.36.8.8s-.36.8-.8.8Z"/>
  <path class="cls-1" d="M673.27,92.38h-23.05c-.44,0-.8-.36-.8-.8s.36-.8.8-.8h23.05c.44,0,.8.36.8.8s-.36.8-.8.8Z"/>
  <path class="cls-1" d="M635.83,92.38h-104.04c-.44,0-.8-.36-.8-.8s.36-.8.8-.8h104.04c.44,0,.8.36.8.8s-.36.8-.8.8Z"/>
  <path class="cls-1" d="M696.33,92.38h-23.05c-.44,0-.8-.36-.8-.8s.36-.8.8-.8h23.05c.44,0,.8.36.8.8s-.36.8-.8.8Z"/>
  <path class="cls-1" d="M662.71,58.06c-.44,0-.8-.36-.8-.8V19.71l-4.34-5.41c-.19-.24-.23-.57-.1-.84.13-.28.41-.45.72-.45h15.08c.44,0,.8.36.8.8s-.36.8-.8.8h-13.42l3.48,4.33c.11.14.17.32.17.5v37.83c0,.44-.36.8-.8.8Z"/>
  <path class="cls-1" d="M673.27,26.53h-10.57c-.44,0-.8-.36-.8-.8s.36-.8.8-.8h10.57c.44,0,.8.36.8.8s-.36.8-.8.8Z"/>
  <path class="cls-1" d="M662.71,42.26s-.08,0-.13-.01c-.43-.07-.73-.48-.66-.91,1.09-6.79,6.29-8.91,9.09-10.05.7-.28,1.49-.61,1.66-.8.29-.33.79-.36,1.12-.07.33.29.36.79.08,1.12-.42.48-1.19.8-2.26,1.23-2.85,1.16-7.17,2.92-8.12,8.82-.06.39-.4.67-.78.67Z"/>
  <path class="cls-1" d="M662.71,14.6c-.44,0-.8-.36-.8-.8V2.39c0-.44.36-.8.8-.8h10.57c.44,0,.8.36.8.8s-.36.8-.8.8h-9.77v10.62c0,.44-.36.8-.8.8Z"/>
  <path class="cls-1" d="M683.84,58.06c-.44,0-.8-.36-.8-.8V19.43c0-.18.06-.36.17-.5l3.48-4.33h-13.42c-.44,0-.8-.36-.8-.8s.36-.8.8-.8h15.08c.31,0,.58.18.72.45.13.27.09.6-.1.84l-4.34,5.41v37.55c0,.44-.36.8-.8.8Z"/>
  <path class="cls-1" d="M683.84,26.53h-10.57c-.44,0-.8-.36-.8-.8s.36-.8.8-.8h10.57c.44,0,.8.36.8.8s-.36.8-.8.8Z"/>
  <path class="cls-1" d="M683.84,42.26c-.38,0-.72-.28-.78-.67-.95-5.91-5.27-7.66-8.12-8.82-1.07-.43-1.84-.75-2.26-1.23-.29-.33-.26-.83.08-1.12.33-.29.83-.26,1.12.07.17.2.96.52,1.66.8,2.79,1.14,8,3.26,9.09,10.05.07.43-.23.84-.66.91-.04,0-.09.01-.13.01Z"/>
  <path class="cls-1" d="M652.14,14.6h-10.57c-.44,0-.8-.36-.8-.8s.36-.8.8-.8h10.57c.44,0,.8.36.8.8s-.36.8-.8.8Z"/>
  <path class="cls-1" d="M652.14,26.53h-10.57c-.44,0-.8-.36-.8-.8s.36-.8.8-.8h10.57c.44,0,.8.36.8.8s-.36.8-.8.8Z"/>
  <path class="cls-1" d="M641.58,42.26s-.08,0-.13-.01c-.43-.07-.73-.48-.66-.91,1.09-6.79,6.29-8.91,9.09-10.05.7-.28,1.49-.61,1.66-.8.29-.33.79-.36,1.12-.07.33.29.36.79.08,1.12-.42.48-1.19.8-2.26,1.23-2.85,1.16-7.17,2.92-8.12,8.82-.06.39-.4.67-.78.67Z"/>
  <path class="cls-1" d="M662.71,3.18h-21.13c-.44,0-.8-.36-.8-.8s.36-.8.8-.8h21.13c.44,0,.8.36.8.8s-.36.8-.8.8Z"/>
  <path class="cls-1" d="M662.71,26.53h-10.57c-.44,0-.8-.36-.8-.8s.36-.8.8-.8h10.57c.44,0,.8.36.8.8s-.36.8-.8.8Z"/>
  <path class="cls-1" d="M662.71,42.26c-.38,0-.72-.28-.78-.67-.95-5.91-5.27-7.66-8.12-8.82-1.07-.43-1.84-.75-2.26-1.23-.29-.33-.26-.83.08-1.12.33-.29.83-.26,1.12.07.17.2.96.52,1.66.8,2.79,1.14,8,3.26,9.09,10.05.07.43-.23.84-.66.91-.04,0-.09.01-.13.01Z"/>
  <path class="cls-1" d="M683.84,14.6c-.44,0-.8-.36-.8-.8V3.18h-9.77c-.44,0-.8-.36-.8-.8s.36-.8.8-.8h10.57c.44,0,.8.36.8.8v11.42c0,.44-.36.8-.8.8Z"/>
  <path class="cls-1" d="M704.96,14.6h-10.55c-.44,0-.8-.36-.8-.8s.36-.8.8-.8h10.55c.44,0,.8.36.8.8s-.36.8-.8.8Z"/>
  <path class="cls-1" d="M704.97,26.53h-10.57c-.44,0-.8-.36-.8-.8s.36-.8.8-.8h10.57c.44,0,.8.36.8.8s-.36.8-.8.8Z"/>
  <path class="cls-1" d="M704.97,42.26c-.38,0-.72-.28-.78-.67-.95-5.91-5.27-7.66-8.12-8.82-1.07-.43-1.84-.75-2.26-1.23-.29-.33-.26-.83.08-1.12.33-.29.83-.26,1.12.07.17.2.96.52,1.66.8,2.79,1.14,8,3.26,9.09,10.05.07.43-.23.84-.66.91-.04,0-.09.01-.13.01Z"/>
  <path class="cls-1" d="M694.41,26.53h-10.57c-.44,0-.8-.36-.8-.8s.36-.8.8-.8h10.57c.44,0,.8.36.8.8s-.36.8-.8.8Z"/>
  <path class="cls-1" d="M683.84,42.26s-.08,0-.13-.01c-.43-.07-.73-.48-.66-.91,1.09-6.79,6.3-8.91,9.09-10.05.7-.28,1.49-.61,1.66-.8.29-.33.79-.36,1.12-.07.33.29.36.79.08,1.12-.42.48-1.19.8-2.26,1.23-2.85,1.16-7.17,2.92-8.12,8.82-.06.39-.4.67-.78.67Z"/>
  <path class="cls-1" d="M847.13,352.28H10.1c-1.32,0-2.39-1.07-2.39-2.39v-162.68l-7-6.85c-.69-.68-.91-1.71-.54-2.61.37-.9,1.24-1.48,2.21-1.48h9.01v-20.08l-5.23-4.32c-.78-.64-1.07-1.7-.73-2.65.34-.95,1.24-1.58,2.25-1.58h7.69v-20.08l-5.23-4.32c-.78-.64-1.07-1.7-.73-2.65.34-.95,1.24-1.58,2.25-1.58h1.28c.7-8.71,5.23-11.35,8.62-13.32,2.31-1.35,3.65-2.2,4.26-4.11.32-.99,1.24-1.66,2.27-1.66s1.95.67,2.27,1.66c.61,1.91,1.95,2.76,4.26,4.11,3.39,1.97,7.92,4.61,8.62,13.32h1.28c1.01,0,1.9.63,2.25,1.58.34.95.05,2.01-.73,2.65l-5.23,4.32v20.08h109.74v-59.6l-4.67-5.84c-.57-.72-.68-1.7-.29-2.52.4-.83,1.23-1.35,2.15-1.35h2.81v-13.74l-4.67-5.84c-.57-.72-.68-1.7-.29-2.52.4-.83,1.23-1.35,2.15-1.35h2.13V20.27l-3.99-4.97c-.57-.72-.69-1.7-.29-2.52.4-.83,1.23-1.35,2.15-1.35h2.13V2.39c0-1.32,1.07-2.39,2.39-2.39h63.4c1.32,0,2.39,1.07,2.39,2.39,0,0,0,5.7,0,9.03h2.12c.92,0,1.75.53,2.15,1.35.4.83.28,1.81-.29,2.52l-3.99,4.97v34.61s2.13,0,2.13,0c.92,0,1.75.52,2.15,1.35.4.83.29,1.81-.29,2.52l-4.67,5.84v13.74h101.66,0c-.7-.68-.92-1.71-.55-2.62.36-.9,1.24-1.49,2.21-1.49h10.51v-7.71l-7.44-7.59c-.67-.69-.87-1.71-.5-2.6.37-.89,1.24-1.46,2.2-1.46h5.74v-17.23c.09-4.07,1.87-7.01,3.44-9.6,1.51-2.49,2.81-4.64,2.81-7.62,0-1.32,1.07-2.39,2.39-2.39s2.39,1.07,2.39,2.39c0,2.98,1.3,5.13,2.81,7.62,1.57,2.59,3.35,5.53,3.44,9.55,0,5.66,0,13.44,0,17.28h160.32v-17.23c.09-4.07,1.87-7.01,3.44-9.6,1.51-2.49,2.81-4.64,2.81-7.62,0-1.32,1.07-2.39,2.39-2.39s2.39,1.07,2.39,2.39c0,2.98,1.3,5.13,2.81,7.62,1.57,2.59,3.35,5.53,3.44,9.55v17.28h5.74c.96,0,1.83.58,2.2,1.46.37.89.18,1.91-.5,2.6l-7.44,7.59c0,1.71,0,5.31,0,7.71h10.51c.97,0,1.85.59,2.21,1.49.36.9.15,1.93-.55,2.61h0s101.66,0,101.66,0v-13.74l-4.67-5.84c-.57-.72-.68-1.7-.29-2.52.4-.83,1.23-1.35,2.15-1.35h2.13V20.27l-3.99-4.97c-.57-.72-.69-1.7-.29-2.52.4-.83,1.23-1.35,2.15-1.35h2.13V2.39c0-1.32,1.07-2.39,2.39-2.39h63.4c1.32,0,2.39,1.07,2.39,2.39v9.03s2.13,0,2.13,0c.92,0,1.75.53,2.15,1.35.4.83.28,1.81-.29,2.52l-3.99,4.97v34.61s2.13,0,2.13,0c.92,0,1.75.52,2.15,1.35.4.83.29,1.81-.29,2.52l-4.67,5.84v13.48c0,.09,0,.18,0,.26h2.82c.92,0,1.75.52,2.15,1.35.4.83.29,1.81-.29,2.52l-4.67,5.84v59.6h109.74v-20.08l-5.23-4.32c-.78-.64-1.07-1.7-.73-2.65.34-.95,1.24-1.58,2.25-1.58h1.28c.7-8.71,5.23-11.35,8.62-13.32,2.31-1.35,3.65-2.2,4.26-4.11.32-.99,1.24-1.66,2.27-1.66s1.95.67,2.27,1.66c.61,1.91,1.95,2.76,4.26,4.11,3.39,1.97,7.92,4.61,8.62,13.32h1.28c1.01,0,1.9.63,2.25,1.58.34.95.05,2.01-.73,2.65l-5.23,4.32v18.78c0,.47,0,.9,0,1.3h7.7c1.01,0,1.9.63,2.25,1.58.34.95.05,2.01-.73,2.65l-5.23,4.32v18.78c0,.47,0,.9,0,1.3h9.02c.97,0,1.84.59,2.21,1.48.37.9.15,1.93-.54,2.61l-7,6.85v162.68c0,1.32-1.07,2.39-2.39,2.39ZM12.49,347.51h832.25v-161.29c0-.64.26-1.26.72-1.71l3.54-3.46h-5.56c-1.32,0-2.39-1.07-2.39-2.39,0-.02,0-.05,0-.07,0-.83.01-17.22.01-23.52,0-.71.32-1.39.87-1.84l.98-.81h-3.45c-1.32,0-2.39-1.07-2.39-2.39,0-.02,0-.05,0-.07.01-.82.01-17.22.01-23.52,0-.71.32-1.39.87-1.84l2.13-1.76c-.26-.34-.43-.75-.47-1.21-.01-.14-.02-.28,0-.42-.05-7.73-2.96-9.43-6.34-11.39-1.39-.81-2.88-1.68-4.13-2.97-1.25,1.29-2.74,2.16-4.13,2.97-3.38,1.97-6.31,3.67-6.34,11.45,0,.12,0,.24,0,.37-.05.45-.21.86-.47,1.2l2.13,1.76c.55.45.87,1.13.87,1.84v23.59c0,1.32-1.07,2.39-2.39,2.39h-114.51c-1.32,0-2.39-1.07-2.39-2.39v-62.82c0-.54.18-1.07.52-1.49l2.1-2.62h-.24c-1.32,0-2.39-1.07-2.39-2.39,0-.02,0-.05,0-.07,0-.66,0-10.41,0-16.89,0-.54.18-1.07.52-1.49l2.13-2.66c-.48-.09-.92-.32-1.27-.66-.45-.45-.7-1.05-.7-1.69V19.43c0-.54.19-1.07.53-1.49l1.43-1.78c-1.12-.2-1.97-1.17-1.97-2.35,0-.03,0-.06,0-.09,0-.45,0-4.97.01-8.95h-58.62v9.03c0,1.17-.84,2.14-1.96,2.35l1.43,1.78c.34.42.52.95.52,1.49v37.83c0,1.17-.85,2.15-1.96,2.35l2.13,2.66c.34.42.52.95.52,1.49v16.96c0,1.32-1.07,2.39-2.39,2.39h-109.95c-.96,0-1.84-.58-2.2-1.47-.37-.89-.17-1.92.52-2.6l.04-.04h-6.98c-2.39,0-2.39-2.09-2.39-4.11v-9.34c0-.62.24-1.22.68-1.67l4.15-4.23h-2.44c-1.32,0-2.39-1.07-2.39-2.39v-19.61c-.06-2.69-1.31-4.75-2.75-7.14-.37-.61-.75-1.23-1.11-1.89-.37.66-.75,1.28-1.11,1.89-1.44,2.38-2.69,4.44-2.75,7.19v19.56c0,1.32-1.07,2.39-2.38,2.39h-165.09c-2.39,0-2.39-1.48-2.39-5.45v-16.55c-.07-2.69-1.31-4.75-2.76-7.13-.37-.61-.75-1.23-1.11-1.89-.37.66-.75,1.28-1.11,1.89-1.44,2.38-2.69,4.44-2.75,7.19v19.56c0,1.32-1.07,2.39-2.38,2.39h-2.44l4.15,4.23c.44.45.68,1.05.68,1.67v11.07c0,1.32-1.07,2.39-2.39,2.39h-6.99c.67.64.91,1.62.6,2.51-.34.96-1.24,1.6-2.25,1.6h-109.95c-1.32,0-2.39-1.07-2.39-2.39v-16.96c0-.54.18-1.07.52-1.49l2.13-2.66c-.48-.09-.92-.32-1.27-.66-.45-.45-.7-1.05-.7-1.69V19.43c0-.54.19-1.07.53-1.49l1.42-1.77c-1.94-.25-1.94-2.14-1.94-4.14v-7.25h-58.63v9.03c0,1.17-.84,2.14-1.96,2.35l1.43,1.78c.34.42.52.95.52,1.49v37.83c0,1.17-.85,2.15-1.96,2.35l2.13,2.66c.34.42.52.95.52,1.49v16.96c0,1.32-1.07,2.39-2.39,2.39h-.23l2.1,2.62c.34.42.52.95.52,1.49v62.82c0,1.32-1.07,2.39-2.39,2.39H38.44c-1.32,0-2.39-1.07-2.39-2.39v-23.59c0-.71.32-1.39.87-1.84l2.13-1.76c-.26-.34-.43-.75-.47-1.21-.01-.14-.02-.28,0-.42-.05-7.73-2.96-9.43-6.34-11.39-1.39-.81-2.88-1.68-4.13-2.97-1.25,1.29-2.74,2.16-4.13,2.97-3.38,1.97-6.31,3.67-6.34,11.45,0,.12,0,.25,0,.37-.05.45-.21.86-.47,1.2l2.13,1.76c.55.45.87,1.13.87,1.84v23.59c0,1.32-1.07,2.39-2.39,2.39h-3.44l.98.81c.55.45.87,1.13.87,1.84v23.59c0,1.32-1.07,2.39-2.39,2.39h-5.55l3.54,3.46c.46.45.72,1.06.72,1.71v161.29Z"/>
</svg>