<?xml version="1.0" encoding="UTF-8"?>
<svg id="Layer_1" data-name="Layer 1" xmlns="http://www.w3.org/2000/svg" viewBox="0 0 828.85 494.72" xmlns:c2pa="http://c2pa.org/manifest">
  <defs>
    <style>
      .cls-1 {
        fill: #fff;
      }
    </style>
  </defs>
  <path class="cls-1" d="M584.86,441.83c2.29-.34,4.25-.28,6.72-.03l-16.91,34.97c-1.26.39-2.34.35-3.78.13l-4.19-22.53-10.47,22.51c-1.4.19-2.5.25-3.74-.05l-7.19-35.21h6.55s4.22,22.38,4.22,22.38l10.22-22.17c1.42-.22,2.53-.26,3.9.03l4.3,22.17,10.36-22.22Z"/>
  <polygon class="cls-1" points="208.87 457.75 224 476.48 215.89 476.56 201.18 458.74 198.65 476.52 192.08 476.51 199.53 423.53 206.09 423.61 201.42 456.7 216.13 441.61 223.77 441.7 208.87 457.75"/>
  <path class="cls-1" d="M479.48,446.9l-6.21,44.03h-6.68s6.31-43.95,6.31-43.95l-5.81-.03.77-5.44,5.8-.09c.33-3.6.96-6.84,2.31-10.03,3.59-8.43,12.75-10.54,21.05-6.38l-.9,5.92c-5.9-2.87-11.8-2.48-14.33,3.31-.98,2.24-1.31,4.58-1.52,7.21l6.39.13-.65,5.35-6.53-.02Z"/>
  <polygon class="cls-1" points="146.4 476.39 139.41 476.51 146.08 430.12 131.71 430.1 132.6 423.96 168.49 423.98 167.64 430.12 152.98 430.14 146.4 476.39"/>
  <path class="cls-1" d="M264.04,447.56c-2.95-3.21-9.05.87-12.22,5.41l-3.18,23.64-6.68-.07,4.87-35,6.54.16-.61,4.75c2.79-3.79,7.23-5.72,11.74-5.52,6.5.28,8.28,6.63,7.4,13.36l-2.94,22.31-6.69-.02,3.14-24.99c.2-1.59-.55-3.12-1.38-4.02Z"/>
  <path class="cls-1" d="M435.42,476.84c-5.61,1.56-11.15-.17-15.39-3.68l1.1-6.53c4.56,3.02,8.87,6.39,12.74,4.08.89-.53,1.84-1.88,1.64-3.39-.9-6.76-15.81-8.67-12.51-20.1,2.17-7.52,13.37-8.1,20.59-3.48l-.55,6.94c-4.6-4.05-11.63-6.01-13.61-2.24-.67,1.27-.47,3.05.76,4.02l5.18,4.1c1.9,1.5,3.84,2.94,5.14,5,1.75,2.8,2.35,5.97,1.06,9.43-.82,2.19-2.96,4.97-6.15,5.85Z"/>
  <path class="cls-1" d="M388.6,441.7l-13.48,27.43-3.93,7.62c-1.19.5-2.55.53-3.83.09l-7.68-35.36h6.69s4.4,22.53,4.4,22.53l11.12-22.41,6.72.1Z"/>
  <polygon class="cls-1" points="335.3 476.61 328.62 476.54 336.05 423.66 342.68 423.66 335.3 476.61"/>
  <path class="cls-1" d="M632.42,476.51l-6.61.03,4.97-34.95,6.28-.06-.52,6.43c1.42-2.59,2.88-4.75,5.32-6.26,2.48-1.54,5.82-.91,7.1,1.75l-1.96,6.05c-2.1-2.08-5.05-2.22-7.19-.06-1.69,1.71-3.92,3.96-4.3,6.5l-3.09,20.58Z"/>
  <path class="cls-1" d="M527.39,476.4l-6.6.16,4.97-35.02h6.44s-.82,6.35-.82,6.35c1.48-2.17,2.59-4.29,4.74-5.82,2.55-1.81,5.92-1.54,7.74,1.19l-2,6.21c-2.06-2.02-4.49-2.18-6.52-.56-2.24,1.77-3.81,4.19-5.03,6.82l-2.93,20.66Z"/>
  <polygon class="cls-1" points="233.3 476.43 226.49 476.53 231.56 441.53 238.16 441.61 233.3 476.43"/>
  <path class="cls-1" d="M692.31,462.2c-1.25.33-2.11.26-3.18.07l2.69-34.4c.17-2.19,1.36-3.97,3.39-4.74,1.04-.39,2.2-.21,2.98.34,2.23,1.57,1.24,7.27.3,11.44l-6.18,27.28Z"/>
  <polygon class="cls-1" points="350.64 476.51 343.96 476.53 348.88 441.58 355.55 441.52 350.64 476.51"/>
  <path class="cls-1" d="M693.56,472.89c-.31,2.75-2.26,4.48-4.45,4.42-2.78-.08-4.28-2.29-4.11-5.04.17-2.78,2-4.5,4.59-4.43s4.3,2.09,3.96,5.06Z"/>
  <path class="cls-1" d="M356.93,431.34c-.49,2.42-2.5,3.6-4.58,3.15s-3.1-2.5-2.64-4.68c.43-2.07,2.22-3.32,4.16-3.09,2.09.24,3.54,2.21,3.06,4.62Z"/>
  <circle class="cls-1" cx="235.86" cy="430.63" r="3.83"/>
  <path class="cls-1" d="M174.35,441.27c-12.72,2.03-19.59,17.02-15.15,28.82,1.42,3.76,4.42,6.41,7.8,6.99,4.09.7,7.64-.7,10.38-3.8v3.35s6.51-.09,6.51-.09l4.81-34.89c-4.84-.97-9.57-1.14-14.35-.38ZM178.57,467.04c-1.38,1.84-3.07,3.33-5.35,4.13-3.6,1.02-6.72-.84-7.91-4.16-1.31-3.65-.93-7.49.36-11.15,2.32-6.59,8.54-10.52,15.82-9.31l-2.93,20.49Z"/>
  <path class="cls-1" d="M278.62,453.76c-.29,4.55,1.23,8.73,4.95,11.31-2.01.97-3.57,1.51-4.67,2.99-1.25,1.69-1.44,3.82-.52,5.71.71,1.45,2.25,2.58,4.05,3.45l-5.29,2.61c-2.38,1.75-3.74,4.33-3.22,7.3.41,2.34,2.04,4.72,4.71,5.75,8.3,3.21,20.95,2.78,23.99-5.84,1.68-4.76-.5-8.97-4.61-11.11-6.14-3.2-13.94-3.03-13.85-5.74.07-2.19,2.91-3.03,4.8-2.93,5.36.29,10.26-2.04,12.83-6.2,2.82-4.57,2.86-10.01-.14-14.51l6.02-.05.71-5.07-17.62.02c-6.91,0-11.72,5.68-12.14,12.3ZM287.38,479.34c3-.03,8.48,1.79,9.18,4.27.32,1.15.05,2.23-.68,3.14-3.59,4.54-14.47,3.23-15.44-1.05-.78-3.41,4.37-6.34,6.94-6.37ZM296.95,450.45c1,3.25.32,6.99-2.21,9.53-1.85,1.86-4.46,2.31-6.66,1.3-1.91-.88-3.09-3.06-3.2-5.51-.16-3.53,1.17-7.04,4.39-8.55,3.16-1.48,6.65-.11,7.68,3.23Z"/>
  <path class="cls-1" d="M676.25,423.64l-2.47,17.43c-4.89-.55-9.53-.26-13.87,1.74-7.56,3.5-11.39,11.09-11.08,19.32.28,7.43,4.84,13.41,12.52,14.72,4.9.83,9.6.41,14.16-.58l7.26-52.62h-6.52ZM669.33,471.24c-5.26,1.31-11.38-.79-13.02-5.69-1.94-5.78-.2-12.42,4.47-16.31,3.41-2.85,7.76-3.22,12.12-2.66l-3.56,24.66Z"/>
  <path class="cls-1" d="M594.46,450.54c-6.13,10.38-3.37,25.18,6.2,26.62,3.94.59,7.42-.9,10.04-3.87v3.32s6.52-.08,6.52-.08l4.73-34.85c-11.03-2.14-21.55-1.19-27.48,8.86ZM611.75,467.04c-2.43,3.43-5.96,5.38-9.55,3.94-5.45-2.18-5.84-12.7-1.02-19.24,3.14-4.26,8.09-5.97,13.63-5.21l-3.05,20.51Z"/>
  <path class="cls-1" d="M510.63,442.61c-6.66-3.73-14.91-1.74-19.27,4.6-6.7,9.74-5.59,25.04,2.83,28.92,6.63,3.06,13.91.56,17.94-5.34,5.94-8.71,6.01-23.98-1.5-28.18ZM499.06,471.36c-6.37-1.16-7.39-14.61-1.22-22.23,1.65-2.04,3.97-3.13,6.48-2.66,2,.37,3.98,2.11,4.7,4.61,2.75,9.5-2.78,21.59-9.96,20.29Z"/>
  <path class="cls-1" d="M409.03,441.48c-5.92-1.95-12.18.05-15.93,5.13-7.51,10.17-5.64,25.65,3.91,29.66,5.67,2.39,12.09,1.14,16.85-2.58l1.14-6.96c-2.65,1.71-4.89,3.52-8.02,4.49-4.22,1.31-8.66-.26-10.53-4.03-1.31-2.65-1.54-5.5-1.31-8.29l21.35-.04c.84-7.31-.47-14.37-7.45-17.39ZM410.23,454.3h-14.03c.81-2.99,2.21-5.3,4.4-6.98,2.27-1.66,5.22-2.01,7.45-.25,1.78,1.87,2.43,4.33,2.18,7.23Z"/>
  <path class="cls-1" d="M477.62,254.39l-39.72-103.86-30.04-78.93c-.57-1.01-1.38-1.1-2.31-.91-.71.15-1.18.71-1.58,1.8l-38.2,99.31-73.74,31.24L369.91.04l72.33-.04,11.84,31.25,62.97,165.19,21.94,57.89-61.37.06Z"/>
  <polygon class="cls-1" points="346.66 254.2 292.92 217.94 396.81 174.3 418.29 165.32 436.21 216.87 346.66 254.2"/>
  <path class="cls-1" d="M341.03,323.83c-.2-1.11-.85-1.55-1.17-1.92-.34-.4-1.72-.76-2.13-.05l-6.98,12.1-28.59,49.06-18.84.03,38.42-66.11,8.86-14.82c3.03-5.06,9.51-6.18,14.2-2.71,2.08,1.54,3.59,3.46,4.88,5.72l13.18,23.19,31.26,54.7-18.72.02-34.37-59.2Z"/>
  <path class="cls-1" d="M775.92,323.4c-.53-.93-.75-1.68-1.54-1.87-.57-.14-1.63.03-2.09.82l-24.17,41.67-11.03,19.02-18.97.03,46.86-80.16c3.24-4.87,8.75-7.03,13.82-4.16,3.26,1.84,5.39,4.82,6.98,8.31l43.07,75.94-18.61.08-21.09-36.33-13.23-23.33Z"/>
  <path class="cls-1" d="M738.67,297.86l-41.08,56.31-.14,28.86-14.73.03v-29.13s-21.09-28.09-21.09-28.09l-20.79-27.89,19.31-.1,28.27,38.76c.6.82,1.11,1.25,1.97,1.19.74-.05,1.37-.49,1.89-1.33l27.27-38.59,19.12-.02Z"/>
  <path class="cls-1" d="M593.37,383l-15.05.07v-68.43c-.06-1.15-.82-1.66-1.87-1.69l-30.35-.07.03-15.07h79.39s.02,15.12.02,15.12l-30.43.02c-1.02.04-1.66.6-1.73,1.72l-.02,68.33Z"/>
  <rect class="cls-1" x="515.11" y="297.79" width="14.92" height="85.33"/>
  <path class="cls-1" d="M141.86,344.66l31.32-.1c6.78-.02,13.95-1.89,16.34-8.17,1.37-3.61,1.59-7.53.65-11.29-1.86-7.45-9.38-9.77-17.02-9.78l-43.88-.03c-1.04,0-1.69.94-1.67,1.91l-.03,65.87h-14.86s-.05-82.91-.05-82.91l59.62.11c7.06.01,13.53,1.36,19.61,4.46,6.65,3.5,11.08,9.18,12.65,16.59,1.43,6.71,1.22,13.87-1.32,20.37-2.89,7.38-9.26,12.43-16.48,15.14-.75.28-1.19.78-1.35,1.2-.24.62-.12,1.34.39,1.94l23.06,23.07-21.48-.05-22.51-23.45-22.89-.18-.11-14.68Z"/>
  <path class="cls-1" d="M87.47,369.21c-4.23,9.4-15.43,13.77-25.5,13.79l-60.21.11.07-15.35h56.75c8.74-.05,17.37-1.71,17.47-10.9.09-7.91-6.67-10.7-14.49-10.73l-36.28-.14C11.25,345.93.04,337.7,0,323.05c-.03-9.2,4.75-16.95,13.5-20.28,4.93-1.88,10.09-2.43,15.6-2.58h56.14s-.03,15.11-.03,15.11H28.27c-2.76.17-5.28.35-7.64,1.38-3.16,1.38-4.75,4.12-4.53,7.28.4,5.6,5.72,7.2,11.71,7.21l31.66.02c11.4,0,22.86,2.82,27.9,13.47,3.64,7.7,3.62,16.74.1,24.54Z"/>
  <rect class="cls-1" x="235.06" y="300.16" width="15.07" height="82.96"/>
  <path class="cls-1" d="M494.41,325.64c-2.81-10.15-9.5-18.12-18.72-23.14-6.08-3.11-12.51-4.6-19.47-4.62l-47.7-.09-.04,85.25,45.81-.09c7.95-.02,15.14-2.1,22.01-5.82,17.86-10.59,23.52-31.98,18.11-51.49ZM477.71,354.84c-4.23,8.37-13.54,12.38-22.67,12.44l-29.46.2c-1.38,0-2.23-.77-2.23-2.19l.02-50.64c0-1.09.86-1.68,1.8-1.68l27.87.05c4.93,0,9.57.88,14.08,2.76,14.49,6.04,17.45,25.48,10.59,39.07Z"/>
</svg>